<svg width="1978" height="2008" viewBox="0 0 1978 2008" fill="none" xmlns="http://www.w3.org/2000/svg">
<g clip-path="url(#clip0_68_834)">
<path d="M1502.85 1.30558L1375.53 65.1601C1366 69.2081 1359.82 78.5665 1359.82 88.926V148.471C1359.82 201.662 1374.66 254.417 1405.21 300.947C1428.15 335.9 1458.58 380.559 1509.16 406.109H1532.01C1588.34 388.916 1630.39 343.125 1656.11 303.951C1686.67 257.42 1701.51 204.665 1701.51 151.475V88.926C1701.51 78.5665 1695.33 69.2516 1685.8 65.1601L1540.76 3.35136C1534.32 0.609139 1509.29 -1.43664 1502.85 1.30558Z" fill="#E0E0E0"/>
<path d="M1497.71 3.35159L1352.68 65.1603C1343.14 69.2083 1336.96 78.5667 1336.96 88.9262V148.471C1336.96 201.662 1351.81 254.417 1382.36 300.948C1408.09 340.122 1447.87 380.472 1509.16 406.109C1565.48 388.916 1607.53 343.125 1633.26 303.951C1663.81 257.42 1678.66 204.665 1678.66 151.475V88.9262C1678.66 78.5667 1672.48 69.2519 1662.94 65.1603L1517.91 3.35159C1511.47 0.609367 1504.15 0.609367 1497.71 3.35159Z" fill="#F5F5F5"/>
<path d="M1678.22 135.326C1678.31 135.326 1678.4 136.284 1678.48 138.068C1678.57 140.114 1678.7 142.726 1678.83 145.947C1678.96 149.385 1679.18 153.564 1678.92 158.439C1678.66 163.314 1678.88 168.886 1678.18 174.98C1677.61 181.073 1677.18 187.82 1675.92 194.915C1675.35 198.484 1674.87 202.184 1674.13 205.971C1673.3 209.758 1672.48 213.588 1671.65 217.593C1667.86 233.393 1662.6 250.543 1654.94 267.649C1647.23 284.755 1638.13 300.207 1628.91 313.614C1624.07 320.143 1619.63 326.454 1614.85 331.895C1612.5 334.638 1610.36 337.423 1608.06 339.861C1605.75 342.298 1603.53 344.649 1601.44 346.869C1597.35 351.439 1593.13 355.052 1589.6 358.447C1586.12 361.842 1582.85 364.541 1580.2 366.674C1577.67 368.719 1575.63 370.33 1574.06 371.636C1572.62 372.767 1571.88 373.29 1571.84 373.246C1571.8 373.203 1572.45 372.506 1573.8 371.288C1575.32 369.938 1577.28 368.197 1579.68 366.021C1582.24 363.801 1585.38 361.015 1588.82 357.533C1592.25 354.094 1596.35 350.394 1600.39 345.781C1602.44 343.517 1604.62 341.167 1606.88 338.729C1609.14 336.248 1611.23 333.506 1613.5 330.764C1618.2 325.323 1622.55 319.011 1627.29 312.482C1636.35 299.119 1645.32 283.798 1652.98 266.779C1660.59 249.803 1665.86 232.784 1669.73 217.157C1670.61 213.24 1671.48 209.366 1672.3 205.666C1673.09 201.923 1673.57 198.223 1674.17 194.697C1675.52 187.646 1676 180.943 1676.7 174.892C1677.53 168.842 1677.4 163.271 1677.79 158.439C1678.14 153.608 1678.09 149.429 1678.09 145.99C1678.14 142.769 1678.14 140.158 1678.18 138.112C1678.09 136.284 1678.14 135.326 1678.22 135.326Z" fill="#E0E0E0"/>
<path d="M1497.02 264.776L1413.83 198.659L1436.9 169.626L1492.71 213.98L1574.15 122.791L1601.83 147.514L1497.02 264.776Z" fill="white"/>
<path d="M1889.94 327.151H1874.19V241.489C1874.19 221.336 1857.78 204.926 1837.62 204.926C1817.47 204.926 1801.06 221.336 1801.06 241.489V327.151H1785.3V241.489C1785.3 212.631 1808.76 189.169 1837.62 189.169C1866.48 189.169 1889.94 212.631 1889.94 241.489V327.151Z" fill="#EBEBEB"/>
<path d="M1894.77 379.514H1780.56C1773.16 379.514 1767.15 373.508 1767.15 366.108V282.361C1767.15 274.962 1773.16 268.955 1780.56 268.955H1894.77C1902.17 268.955 1908.18 274.962 1908.18 282.361V366.064C1908.14 373.508 1902.13 379.514 1894.77 379.514Z" fill="#EBEBEB"/>
<path d="M1848.46 327.107C1851.2 324.322 1852.94 320.535 1852.94 316.269C1852.94 307.694 1845.98 300.773 1837.45 300.773C1828.87 300.773 1821.95 307.738 1821.95 316.269C1821.95 323.364 1826.74 329.284 1833.23 331.112L1829.87 345.868H1844.63L1841.67 331.112C1844.28 330.416 1846.59 328.979 1848.46 327.107Z" fill="#FAFAFA"/>
<path d="M100.506 1578.04C83.7044 1567.46 64.4215 1560.84 44.6597 1558.8C35.5189 1557.84 25.5509 1558.15 18.2382 1563.67C16.6712 1564.85 15.1477 1566.59 15.496 1568.51C15.7571 1569.9 16.9324 1570.94 18.0641 1571.81C40.8293 1589.14 75.1729 1591.36 100.506 1578.04Z" fill="#E0E0E0"/>
<path d="M99.0698 1576.47C86.4032 1566.59 73.693 1556.67 62.9851 1544.74C52.2772 1532.81 43.5716 1518.62 40.3505 1502.91C39.3929 1498.12 39.0882 1492.68 42.1352 1488.89C70.9072 1511.35 93.4982 1540.43 99.0698 1576.47Z" fill="#E0E0E0"/>
<path d="M100.202 1577.82C98.0251 1562.11 97.2416 1545.91 100.854 1530.46C104.467 1515.01 112.868 1500.21 126.101 1491.38C131.063 1503 128.93 1516.36 125.448 1528.5C120.05 1547.26 111.562 1565.11 100.419 1581.17" fill="#E0E0E0"/>
<path d="M128.408 1628.35C111.301 1630.44 96.371 1639.45 83.6173 1651.03C70.8201 1662.61 61.7662 1678.19 57.9793 1694.99C74.7811 1693.95 89.0148 1682.11 99.3309 1668.83C109.647 1655.56 116.829 1641.02 128.146 1628.57" fill="#E0E0E0"/>
<path d="M134.502 1636.45C120.703 1602.5 125.709 1561.58 147.255 1531.94C157.006 1566.59 153.436 1605.76 134.502 1636.45Z" fill="#E0E0E0"/>
<path d="M171.762 1680.76C156.222 1679.8 140.421 1683.5 126.971 1691.25C113.478 1699 102.378 1710.8 95.3699 1724.72C94.4123 1726.6 93.5853 1729.03 94.8476 1730.73C95.9358 1732.21 98.0686 1732.34 99.8968 1732.21C114.958 1731.25 128.277 1722.2 139.29 1711.88C150.302 1701.57 159.878 1689.64 172.066 1680.72" fill="#E0E0E0"/>
<path d="M170.586 1678.37C162.577 1652.73 162.055 1624.79 169.15 1598.89C171.936 1588.66 176.637 1577.91 186.126 1573.07C186.953 1572.68 187.867 1572.29 188.737 1572.64C189.521 1572.94 190 1573.77 190.392 1574.55C193.743 1581.61 194.744 1589.57 194.396 1597.36C194.048 1605.15 192.437 1612.82 190.827 1620.43C187.867 1634.54 186.256 1649.68 178.508 1661.87C176.68 1664.74 175.07 1667.88 173.59 1670.97C172.11 1674.06 172.11 1675.15 170.76 1677.63" fill="#E0E0E0"/>
<path d="M269.177 1693.04C261.865 1665.27 269.613 1631.58 287.154 1608.77C288.46 1607.07 290.158 1605.29 292.247 1605.5C295.468 1605.81 296.295 1610.12 296.165 1613.34C294.902 1641.76 285.413 1669.75 269.177 1693.04Z" fill="#E0E0E0"/>
<path d="M278.057 1699.13C311.835 1707.92 350.531 1699.39 378.607 1678.67C361.979 1670.23 342.348 1667.83 324.153 1671.97C306.002 1676.15 289.374 1684.29 278.057 1699.13Z" fill="#E0E0E0"/>
<path d="M285.544 1680.63C304.435 1649.81 340.694 1629.7 376.822 1627.88C372.643 1642.54 360.586 1653.99 346.962 1660.87C333.338 1667.75 318.146 1670.75 303.173 1673.67C297.34 1674.8 289.331 1676.06 285.544 1680.63Z" fill="#E0E0E0"/>
<path d="M271.049 1590.88C276.185 1573.34 281.322 1555.66 282.714 1537.43C284.107 1519.19 281.539 1500.21 272.05 1484.54C254.378 1518.71 252.593 1558.62 270.483 1592.71" fill="#E0E0E0"/>
<path d="M330.508 1560.8C351.14 1523.28 393.276 1493.29 435.933 1489.07C419.479 1530.03 374.646 1561.67 330.508 1560.8Z" fill="#E0E0E0"/>
<path d="M317.493 1568.16C348.311 1572.86 374.515 1592.53 403.331 1604.46C409.468 1607.03 416.128 1609.03 422.744 1608.16C429.36 1607.29 435.89 1602.85 437.369 1596.36C438.588 1590.96 436.151 1585.26 432.277 1581.3C428.403 1577.34 423.31 1574.86 418.174 1572.77C386.833 1559.71 353.186 1559.41 320.192 1567.29" fill="#E0E0E0"/>
<path d="M299.69 1589.75C306.655 1591.75 309.049 1595.36 314.577 1600.06C333.294 1616.04 355.798 1627.57 379.651 1633.49C382.132 1634.1 385.397 1634.36 386.616 1632.1C387.704 1630.14 386.311 1627.75 384.918 1626C374.907 1613.47 360.63 1604.94 345.612 1599.32C330.595 1593.71 317.58 1587 299.647 1588.44" fill="#E0E0E0"/>
<path d="M279.58 1459.29C304.609 1482.67 339.91 1494.68 373.993 1491.42C375.56 1491.29 377.257 1491.03 378.302 1489.89C380.696 1487.33 377.823 1483.32 375.037 1481.15C347.31 1459.51 313.663 1450.5 279.58 1459.29Z" fill="#E0E0E0"/>
<path d="M303.434 1450.55C336.559 1425.74 381.958 1418.25 421.264 1431.09C406.421 1445.71 385.832 1453.59 365.113 1455.73C344.394 1457.95 323.631 1455.64 303.434 1450.55Z" fill="#E0E0E0"/>
<path d="M293.945 1390.61C291.202 1362.88 292.987 1341.03 291.072 1313.17C290.898 1310.95 290.419 1308.26 288.373 1307.47C285.457 1306.34 283.063 1309.91 282.105 1312.87C273.835 1338.55 278.362 1367.97 293.901 1390" fill="#E0E0E0"/>
<path d="M291.942 1393.66C310.703 1382.03 324.806 1366.89 337.864 1349.04C346.918 1336.64 354.579 1321.79 352.533 1306.56C339.78 1306.3 327.722 1313.3 319.409 1323.01C311.138 1332.67 306.22 1344.77 302.52 1356.96C298.82 1369.15 296.252 1381.69 291.942 1393.66Z" fill="#E0E0E0"/>
<path d="M337.037 1381.16C378.258 1365.93 416.694 1343.25 449.993 1314.57C436.499 1309.13 421.046 1312.39 407.553 1317.83C376.735 1330.28 351.532 1351.26 336.428 1380.86" fill="#E0E0E0"/>
<path d="M304.653 1408.85C325.503 1411.11 346.701 1412.59 367.376 1409.15C387.704 1405.76 406.943 1397.7 425.922 1389.69C427.489 1389.04 429.23 1388.26 429.883 1386.69C430.623 1384.99 429.839 1382.95 428.446 1381.69C427.053 1380.42 425.225 1379.86 423.441 1379.34C402.765 1373.55 380.478 1376.24 360.151 1383.12C339.867 1389.96 323.196 1398.1 304.653 1408.85Z" fill="#E0E0E0"/>
<path d="M185.56 1460.25C171.326 1431.52 172.24 1398.01 184.559 1368.41C193.221 1381.6 194.266 1398.4 192.699 1414.07C191.132 1429.74 186.343 1445.89 186.039 1461.69" fill="#E0E0E0"/>
<path d="M128.712 1431.57C93.1935 1430.87 57.6747 1446.02 33.5166 1472.09C51.2325 1474.88 69.5143 1470.31 85.6196 1462.43C101.725 1454.55 116.089 1443.49 130.279 1432.53" fill="#E0E0E0"/>
<path d="M90.4948 1418.81C73.1271 1417.42 56.4123 1415.25 39.6976 1420.38C22.9828 1425.52 7.79154 1437.14 0.957642 1453.2C17.1936 1455.03 33.6907 1450.94 48.5773 1444.19C63.5074 1437.44 77.0446 1428.09 90.4948 1418.81Z" fill="#E0E0E0"/>
<path d="M147.081 1419.38C131.455 1409.15 115.393 1398.71 97.1981 1394.48C79.0034 1390.26 57.8923 1393.39 45.2256 1407.11C59.9816 1415.77 77.8281 1416.77 94.9346 1416.77C112.041 1416.77 132.978 1416.55 149.083 1422.25" fill="#E0E0E0"/>
<path d="M147.168 1420.21C120.442 1393.96 110.3 1346.82 121.051 1310.95C142.075 1342.86 151.478 1382.25 147.168 1420.21Z" fill="#E0E0E0"/>
<path d="M220.687 1345.86C225.736 1334.15 229.262 1321.84 233.789 1309.91C238.316 1297.98 243.931 1286.23 252.462 1276.79C260.994 1267.3 272.834 1260.25 285.544 1259.64C277.578 1295.76 253.594 1328.02 221.296 1346.04" fill="#E0E0E0"/>
<path d="M207.367 1361.36C199.01 1349.87 189.39 1334.28 178.073 1325.71C166.756 1317.13 152.043 1311.96 138.245 1315.26C152.261 1340.34 178.813 1358.05 207.367 1361.36Z" fill="#E0E0E0"/>
<path d="M210.023 1346.82C204.538 1332.94 199.054 1318.88 196.834 1304.12C194.614 1289.36 195.963 1273.56 203.537 1260.72C218.206 1288.45 222.95 1318.22 210.806 1347.17" fill="#E0E0E0"/>
<path d="M220.818 1260.68C229.131 1233.17 254.291 1212.93 281.496 1203.66C284.934 1202.48 288.547 1201.53 292.117 1202.05C295.686 1202.61 299.212 1205.05 299.952 1208.58C300.953 1213.23 297.079 1217.46 293.466 1220.55C272.268 1238.7 247.413 1252.41 220.818 1260.68Z" fill="#E0E0E0"/>
<path d="M221.122 1238.22C222.167 1220.5 223.299 1202.53 229.044 1185.73C234.79 1168.92 245.933 1153.17 262.082 1145.81C264.824 1163.7 256.946 1181.5 247.413 1196.91C237.881 1212.32 226.389 1226.86 220.687 1244.05" fill="#E0E0E0"/>
<path d="M220.687 1250.41C213.81 1230.38 213.113 1204.92 201.099 1187.47C192.699 1175.28 179.292 1166.97 172.066 1154.04C167.278 1166.1 168.715 1180.02 173.764 1191.99C178.813 1203.96 187.083 1214.28 195.963 1223.77C204.799 1233.26 212.417 1240.4 220.687 1250.41Z" fill="#E0E0E0"/>
<path d="M220.818 1840.42C220.295 1840.42 219.816 1706.75 219.773 1541.95C219.729 1377.07 220.121 1243.44 220.687 1243.44C221.209 1243.44 221.688 1377.07 221.732 1541.95C221.732 1706.79 221.34 1840.42 220.818 1840.42Z" fill="#E0E0E0"/>
<path d="M337.603 1440.06C337.647 1440.19 335.862 1440.84 332.598 1441.93C328.985 1443.15 324.327 1444.71 318.756 1446.59C307.09 1450.55 291.072 1456.29 273.704 1463.43C256.511 1470.83 240.275 1476.79 231.003 1484.8C226.389 1488.76 223.734 1493.03 222.428 1496.16C221.122 1499.3 220.861 1501.21 220.687 1501.17C220.6 1501.17 220.644 1500.69 220.731 1499.78C220.905 1498.86 221.122 1497.51 221.732 1495.9C222.863 1492.59 225.432 1488.02 230.089 1483.8C234.747 1479.58 241.189 1475.75 248.632 1472.31C256.032 1468.87 264.259 1465.26 272.964 1461.65C290.419 1454.51 306.524 1448.94 318.32 1445.28C324.197 1443.45 329.028 1442.1 332.336 1441.19C335.688 1440.36 337.56 1439.93 337.603 1440.06Z" fill="#E0E0E0"/>
<path d="M375.908 1346.04C375.951 1346.08 375.473 1346.6 374.515 1347.56C373.383 1348.65 371.947 1349.95 370.206 1351.61C366.201 1355.22 360.804 1360.14 354.187 1366.15C340.346 1378.47 321.628 1395.14 300.909 1413.59C280.103 1432.09 262.126 1449.81 249.677 1463.13C243.452 1469.79 238.533 1475.27 235.182 1479.14C233.615 1480.93 232.353 1482.41 231.308 1483.58C230.394 1484.58 229.915 1485.11 229.871 1485.06C229.828 1485.02 230.22 1484.45 231.003 1483.37C231.83 1482.28 233.005 1480.71 234.616 1478.71C237.794 1474.7 242.582 1469.05 248.676 1462.26C260.907 1448.67 278.797 1430.74 299.647 1412.2C320.54 1393.74 339.518 1377.12 353.317 1365.15C360.107 1359.31 365.635 1354.57 369.727 1351.04C371.555 1349.52 373.035 1348.3 374.254 1347.3C375.255 1346.39 375.864 1345.99 375.908 1346.04Z" fill="#E0E0E0"/>
<path d="M278.449 1432.39C277.883 1432.13 282.236 1422.12 286.588 1409.41C290.941 1396.75 293.031 1385.99 293.553 1386.13C294.075 1386.17 292.813 1397.18 288.417 1410.07C286.24 1416.46 283.846 1422.12 281.931 1426.13C280.016 1430.09 278.666 1432.48 278.449 1432.39Z" fill="#E0E0E0"/>
<path d="M220.948 1513.27C220.861 1513.36 219.686 1512.01 217.727 1509.57C215.551 1506.78 212.808 1503.26 209.5 1499.04C202.623 1490.11 193.047 1477.79 182.382 1464.34C171.675 1450.89 161.881 1438.79 154.742 1430.05C151.39 1425.91 148.561 1422.43 146.341 1419.64C144.382 1417.16 143.338 1415.77 143.425 1415.68C143.512 1415.59 144.774 1416.86 146.907 1419.16C149.04 1421.47 152.087 1424.91 155.787 1429.17C163.187 1437.71 173.198 1449.68 183.906 1463.13C194.614 1476.62 203.972 1489.07 210.589 1498.21C213.897 1502.78 216.552 1506.52 218.293 1509.13C220.121 1511.75 221.035 1513.23 220.948 1513.27Z" fill="#E0E0E0"/>
<path d="M195.31 1480.41C195.006 1480.75 188.172 1472.66 184.602 1460.34C181.947 1451.68 181.86 1443.71 182.165 1440.1L183.035 1440.19C182.644 1441.75 182.382 1442.54 182.208 1442.54C182.078 1442.49 182.034 1441.67 182.165 1440.06L183.035 1440.14C183.34 1443.76 183.906 1451.42 186.474 1459.86C189.913 1471.7 195.833 1480.1 195.31 1480.41Z" fill="#E0E0E0"/>
<path d="M162.272 1438.84C162.011 1439.1 159.835 1436.31 154.786 1434.48C149.78 1432.57 142.25 1432.13 133.979 1432.83C125.709 1433.44 118.309 1434.92 113.042 1436.23C107.775 1437.53 104.511 1438.58 104.424 1438.32C104.337 1438.1 107.427 1436.62 112.694 1434.92C117.961 1433.27 125.448 1431.57 133.849 1430.92C142.206 1430.18 150.128 1430.83 155.308 1433.22C160.531 1435.53 162.447 1438.79 162.272 1438.84Z" fill="#E0E0E0"/>
<path d="M154.437 1428.74C154.307 1429.04 150.085 1427 142.946 1424.56C135.851 1422.12 125.752 1419.55 114.305 1418.68C102.9 1417.81 92.4971 1418.81 85.0973 1420.16C77.6976 1421.47 73.2142 1422.86 73.1271 1422.56C73.0836 1422.43 74.1718 1421.99 76.1741 1421.25C78.1764 1420.51 81.1363 1419.64 84.8361 1418.81C92.2359 1417.12 102.813 1415.85 114.435 1416.73C126.057 1417.64 136.33 1420.47 143.381 1423.25C146.907 1424.65 149.736 1425.95 151.565 1426.95C153.48 1428 154.481 1428.61 154.437 1428.74Z" fill="#E0E0E0"/>
<path d="M220.687 1386.13C220.165 1386.26 216.421 1373.24 212.33 1357.05C208.238 1340.86 205.322 1327.62 205.844 1327.49C206.366 1327.36 210.11 1340.38 214.201 1356.57C218.293 1372.76 221.166 1385.99 220.687 1386.13Z" fill="#E0E0E0"/>
<path d="M221.209 1386.13C220.644 1386.3 218.206 1377.59 211.938 1368.71C205.8 1359.62 198.009 1355.09 198.27 1354.61C198.357 1354.39 200.534 1355.22 203.537 1357.31C206.54 1359.4 210.284 1362.97 213.505 1367.58C220.034 1376.85 221.688 1386.08 221.209 1386.13Z" fill="#E0E0E0"/>
<path d="M220.818 1769.17C220.6 1769.21 220.208 1765.94 218.728 1760.29C217.248 1754.63 214.419 1746.58 209.805 1737.13C200.577 1718.24 183.775 1694.34 162.403 1670.36C151.826 1658.26 141.553 1646.85 132.847 1635.97C124.142 1625.09 116.96 1614.69 111.693 1605.5C106.426 1596.32 103.031 1588.44 101.029 1582.87C100.027 1580.08 99.3309 1577.91 98.9392 1576.38C98.5039 1574.9 98.3298 1574.08 98.3733 1574.08C98.5474 1574.03 99.505 1577.12 101.725 1582.56C103.945 1588.01 107.514 1595.75 112.868 1604.76C118.222 1613.82 125.448 1624.05 134.197 1634.8C142.946 1645.59 153.219 1656.95 163.839 1669.05C185.255 1693.08 202.014 1717.32 211.024 1736.48C215.551 1746.05 218.162 1754.24 219.468 1760.03C220.078 1762.94 220.513 1765.16 220.643 1766.73C220.818 1768.38 220.861 1769.17 220.818 1769.17Z" fill="#E0E0E0"/>
<path d="M326.33 1649.99C326.373 1650.12 324.371 1651.16 320.801 1653.08C317.232 1655.08 312.226 1658.13 306.437 1662.57C300.692 1666.96 294.206 1672.8 287.59 1679.76C280.973 1686.77 274.183 1694.86 267.218 1703.57C253.333 1721.02 240.318 1736.43 232.527 1748.75C228.566 1754.84 225.693 1760.02 223.821 1763.64C221.906 1767.25 220.905 1769.25 220.774 1769.21C220.731 1769.17 220.905 1768.64 221.296 1767.64C221.688 1766.64 222.254 1765.16 223.168 1763.29C224.866 1759.55 227.564 1754.28 231.395 1748.01C238.969 1735.39 251.853 1719.76 265.739 1702.35C272.703 1693.65 279.58 1685.51 286.327 1678.54C293.074 1671.58 299.69 1665.83 305.654 1661.48C311.574 1657.17 316.797 1654.21 320.453 1652.43C322.281 1651.51 323.761 1650.95 324.763 1650.51C325.807 1650.07 326.33 1649.9 326.33 1649.99Z" fill="#E0E0E0"/>
<path d="M328.419 1688.64C328.462 1688.9 323.935 1689.47 316.71 1690.34C309.528 1691.25 299.473 1692.47 288.982 1695.78C278.536 1699.17 269.83 1704.4 264.172 1708.79C258.469 1713.23 255.771 1716.89 255.466 1716.67C255.379 1716.59 255.945 1715.63 257.207 1713.97C258.469 1712.32 260.515 1710.14 263.301 1707.75C268.873 1702.96 277.665 1697.43 288.417 1693.95C299.168 1690.56 309.354 1689.55 316.623 1688.99C323.892 1688.47 328.375 1688.38 328.419 1688.64Z" fill="#E0E0E0"/>
<path d="M258.905 1712.45C258.295 1712.1 263.562 1704.05 267.654 1693.21C271.484 1682.29 272.398 1672.71 273.095 1672.84C273.356 1672.88 273.312 1675.28 272.921 1679.11C272.442 1682.94 271.528 1688.29 269.525 1693.91C267.48 1699.52 264.824 1704.18 262.735 1707.44C260.602 1710.71 259.122 1712.58 258.905 1712.45Z" fill="#E0E0E0"/>
<path d="M360.543 1546.13C360.586 1546.17 359.933 1546.52 358.671 1547.13C357.234 1547.79 355.406 1548.61 353.186 1549.61C350.792 1550.66 347.876 1551.96 344.568 1553.71C341.26 1555.4 337.429 1557.14 333.381 1559.58C331.335 1560.76 329.202 1561.93 326.982 1563.19C324.763 1564.46 322.586 1565.98 320.236 1567.42C315.535 1570.29 310.834 1573.77 305.784 1577.38C295.947 1584.87 285.587 1593.71 275.663 1603.89C265.782 1614.21 257.338 1624.83 250.199 1634.93C246.804 1640.06 243.452 1644.89 240.753 1649.68C239.361 1652.08 237.924 1654.3 236.749 1656.56C235.574 1658.82 234.442 1661 233.354 1663.05C231.09 1667.14 229.48 1671.05 227.869 1674.41C226.259 1677.76 225.04 1680.72 224.082 1683.16C223.168 1685.42 222.385 1687.25 221.775 1688.73C221.209 1689.99 220.905 1690.64 220.861 1690.64C220.818 1690.6 220.992 1689.9 221.427 1688.6C221.949 1687.07 222.602 1685.2 223.386 1682.89C224.213 1680.41 225.345 1677.37 226.868 1673.97C228.391 1670.58 229.915 1666.57 232.135 1662.44C233.18 1660.35 234.311 1658.13 235.443 1655.82C236.618 1653.51 238.011 1651.25 239.361 1648.86C242.016 1643.98 245.324 1639.11 248.719 1633.88C255.814 1623.65 264.346 1612.9 274.27 1602.5C284.325 1592.23 294.772 1583.35 304.74 1575.9C309.832 1572.33 314.621 1568.85 319.365 1566.02C321.716 1564.59 323.936 1563.11 326.199 1561.84C328.462 1560.63 330.595 1559.45 332.685 1558.32C336.776 1555.97 340.694 1554.27 344.045 1552.66C347.397 1551.01 350.357 1549.79 352.838 1548.87C355.145 1548 356.973 1547.26 358.497 1546.7C359.803 1546.31 360.499 1546.09 360.543 1546.13Z" fill="#E0E0E0"/>
<path d="M277.012 1602.11C276.838 1602.06 277.752 1598.84 281.626 1595.27C285.37 1591.7 292.204 1588.4 300.126 1588.18C308.048 1587.96 314.925 1590.18 319.583 1591.97C324.284 1593.84 327.026 1595.32 326.939 1595.54C326.808 1595.8 323.892 1594.75 319.147 1593.23C314.403 1591.79 307.7 1589.88 300.169 1590.05C292.682 1590.27 286.24 1593.14 282.497 1596.28C278.666 1599.41 277.317 1602.28 277.012 1602.11Z" fill="#E0E0E0"/>
<path d="M264.52 1614.99C263.997 1614.69 268.698 1607.81 269.787 1597.89C271.005 1588.01 268.045 1580.21 268.611 1580.04C268.829 1579.95 269.874 1581.78 270.788 1585C271.702 1588.22 272.311 1592.97 271.702 1598.1C271.092 1603.24 269.438 1607.68 267.784 1610.64C266.13 1613.6 264.694 1615.12 264.52 1614.99Z" fill="#E0E0E0"/>
<path d="M128.495 1788.32C131.368 1839.38 146.776 1891.35 170.456 1943.84H273.399C295.99 1891.83 310.311 1839.99 312.836 1788.32H128.495Z" fill="#E0E0E0"/>
<path d="M296.165 1870.98C296.165 1871.5 262.256 1871.93 220.469 1871.93C178.639 1871.93 144.774 1871.5 144.774 1870.98C144.774 1870.45 178.683 1870.02 220.469 1870.02C262.256 1870.02 296.165 1870.45 296.165 1870.98Z" fill="#FAFAFA"/>
<path d="M293.858 1889.48C293.858 1890 262.082 1890.43 222.907 1890.43C183.688 1890.43 151.913 1890 151.913 1889.48C151.913 1888.95 183.688 1888.52 222.907 1888.52C262.082 1888.52 293.858 1888.95 293.858 1889.48Z" fill="#FAFAFA"/>
<path d="M172.11 1821.88C172.632 1821.88 173.067 1832.5 173.067 1845.6C173.067 1858.7 172.632 1869.32 172.11 1869.32C171.587 1869.32 171.152 1858.7 171.152 1845.6C171.152 1832.5 171.587 1821.88 172.11 1821.88Z" fill="#FAFAFA"/>
<path d="M227.26 1821.88C227.782 1821.88 228.217 1832.89 228.217 1846.43C228.217 1860.01 227.782 1870.98 227.26 1870.98C226.737 1870.98 226.302 1859.96 226.302 1846.43C226.302 1832.85 226.737 1821.88 227.26 1821.88Z" fill="#FAFAFA"/>
<path d="M279.058 1821.44C279.58 1821.44 280.016 1832.67 280.016 1846.47C280.016 1860.31 279.58 1871.5 279.058 1871.5C278.536 1871.5 278.1 1860.27 278.1 1846.47C278.1 1832.67 278.492 1821.44 279.058 1821.44Z" fill="#FAFAFA"/>
<path d="M309.571 1821.88C309.571 1822.4 269.83 1822.84 220.774 1822.84C171.718 1822.84 131.977 1822.4 131.977 1821.88C131.977 1821.36 171.718 1820.92 220.774 1820.92C269.83 1820.92 309.571 1821.36 309.571 1821.88Z" fill="#FAFAFA"/>
<path d="M1906.74 1345.56C1925.03 1337.9 1938 1319.05 1938.08 1296.85C1938.22 1267.77 1916.19 1244.1 1888.94 1243.97C1861.69 1243.83 1839.49 1267.3 1839.36 1296.37C1839.28 1318.79 1852.33 1337.81 1870.83 1345.51C1794.88 1356.96 1798.32 1439.53 1798.32 1439.53L1977.96 1440.36C1977.96 1440.4 1982.05 1356.92 1906.74 1345.56Z" fill="#EBEBEB"/>
<path d="M1099.21 145.425C1112.01 143.248 1123.07 133.15 1126.42 119.004C1130.81 100.461 1120.24 82.0926 1102.87 78.001C1085.5 73.9095 1067.87 85.5748 1063.48 104.117C1060.12 118.394 1065.65 132.497 1076.27 140.114C1026.09 136.197 1016.12 189.387 1016.12 189.387L1130.64 216.461C1130.64 216.461 1145.61 163.793 1099.21 145.425Z" fill="#EBEBEB"/>
<path d="M1911.66 588.532C1922.33 582.134 1928.73 569.249 1926.77 555.451C1924.24 537.344 1908.44 524.634 1891.47 526.984C1874.49 529.335 1862.82 545.962 1865.35 564.026C1867.31 577.955 1877.15 588.619 1889.33 591.753C1843.15 605.682 1852.68 656.696 1852.68 656.696L1964.42 641.069C1964.42 641.113 1959.5 588.837 1911.66 588.532Z" fill="#F5F5F5"/>
<path d="M118.135 604.333L57.7617 556.322L74.4764 535.255L114.957 567.465L174.112 501.304L194.178 519.237L118.135 604.333Z" fill="#F5F5F5"/>
<path d="M1947.1 1945.45C1947.1 1946.06 1511.21 1946.58 973.591 1946.58C435.802 1946.58 0 1946.06 0 1945.45C0 1944.84 435.802 1944.32 973.591 1944.32C1511.16 1944.28 1947.1 1944.8 1947.1 1945.45Z" fill="#263238"/>
<path d="M200.49 673.846L66.9896 740.834C57.0217 745.1 50.536 754.893 50.536 765.732V828.193C50.536 883.995 66.119 939.275 98.1557 988.112C122.227 1024.76 154.089 1071.6 207.193 1098.37H231.134C290.201 1080.35 334.295 1032.34 361.282 991.246C393.319 942.409 408.902 887.129 408.902 831.327V765.732C408.902 754.893 402.416 745.1 392.449 740.834L240.275 676.022C233.528 673.149 207.28 670.973 200.49 673.846Z" fill="#EF4193"/>
<path opacity="0.3" d="M200.49 673.846L66.9896 740.834C57.0217 745.1 50.536 754.893 50.536 765.732V828.193C50.536 883.995 66.119 939.275 98.1557 988.112C122.227 1024.76 154.089 1071.6 207.193 1098.37H231.134C290.201 1080.35 334.295 1032.34 361.282 991.246C393.319 942.409 408.902 887.129 408.902 831.327V765.732C408.902 754.893 402.416 745.1 392.449 740.834L240.275 676.022C233.528 673.149 207.28 670.973 200.49 673.846Z" fill="black"/>
<path d="M195.093 676.022L43.0057 740.834C33.0377 745.1 26.5521 754.893 26.5521 765.731V828.193C26.5521 883.995 42.1351 939.275 74.1717 988.112C101.116 1029.2 142.859 1071.47 207.15 1098.37C266.217 1080.35 310.311 1032.34 337.299 991.246C369.335 942.409 384.918 887.129 384.918 831.327V765.731C384.918 754.893 378.432 745.1 368.465 740.834L216.334 676.022C209.544 673.149 201.883 673.149 195.093 676.022Z" fill="#EF4193"/>
<path opacity="0.3" d="M241.784 959.297C293.131 939.382 318.611 881.613 298.696 830.268C278.781 778.922 221.012 753.442 169.665 773.357C118.318 793.272 92.8378 851.04 112.753 902.386C132.668 953.732 190.438 979.211 241.784 959.297Z" fill="black"/>
<path d="M205.713 871.894C228.575 871.894 247.109 853.361 247.109 830.5C247.109 807.638 228.575 789.105 205.713 789.105C182.851 789.105 164.318 807.638 164.318 830.5C164.318 853.361 182.851 871.894 205.713 871.894Z" fill="white"/>
<path d="M130.149 931.353C130.149 931.353 149.432 885.388 204.233 885.388C259.035 885.388 281.365 931.353 281.365 931.353C281.365 931.353 256.902 967.481 202.841 966.088C153.828 964.825 130.149 931.353 130.149 931.353Z" fill="white"/>
<path d="M305.436 866.367C305.393 866.367 305.349 865.801 305.218 864.756C305.131 863.581 305.001 862.014 304.87 860.012C304.783 858.967 304.74 857.792 304.653 856.53C304.522 855.267 304.217 853.874 304 852.395C303.521 849.391 303.042 845.909 301.867 842.122C300.082 834.461 296.469 825.364 290.767 815.788C285.021 806.212 276.751 796.244 265.521 787.757C254.334 779.356 240.188 772.217 223.908 769.344C207.716 766.559 189.477 767.081 172.066 773.697C167.626 775.134 163.491 777.31 159.225 779.356C155.177 781.793 150.912 784.057 147.125 787.147C143.12 789.889 139.594 793.328 135.938 796.68C132.63 800.336 129.148 803.949 126.275 808.127C120.398 816.267 115.306 825.321 112.172 835.288C108.951 845.169 107.21 855.703 107.079 866.367C107.21 877.074 108.951 887.565 112.172 897.489C115.262 907.457 120.398 916.51 126.275 924.65C129.148 928.828 132.63 932.398 135.938 936.097C139.594 939.406 143.12 942.844 147.125 945.63C150.912 948.677 155.177 950.94 159.225 953.421C163.491 955.467 167.67 957.687 172.11 959.08C189.521 965.696 207.759 966.218 223.952 963.433C240.231 960.56 254.378 953.421 265.564 945.021C276.795 936.533 285.065 926.565 290.811 916.989C296.513 907.369 300.126 898.316 301.91 890.655C303.086 886.868 303.521 883.386 304.043 880.383C304.261 878.903 304.566 877.51 304.696 876.247C304.783 874.985 304.87 873.81 304.914 872.765C305.044 870.763 305.175 869.196 305.262 868.021C305.305 866.933 305.393 866.367 305.436 866.367C305.48 866.367 305.48 866.933 305.48 867.977C305.436 869.153 305.393 870.719 305.349 872.722C305.305 873.766 305.262 874.942 305.218 876.247C305.131 877.553 304.87 878.946 304.653 880.426C304.217 883.473 303.826 886.955 302.737 890.829C301.083 898.62 297.557 907.805 291.899 917.598C286.197 927.348 277.926 937.577 266.566 946.239C255.248 954.858 240.928 962.214 224.343 965.217C207.846 968.134 189.216 967.698 171.457 960.995C166.93 959.559 162.664 957.339 158.311 955.249C154.176 952.768 149.78 950.461 145.949 947.327C141.858 944.498 138.245 941.016 134.502 937.621C131.106 933.878 127.537 930.221 124.621 925.956C118.614 917.642 113.347 908.371 110.169 898.185C106.861 888.043 105.12 877.292 104.946 866.367C105.077 855.441 106.861 844.69 110.169 834.548C113.347 824.363 118.614 815.092 124.621 806.778C127.537 802.512 131.106 798.856 134.502 795.113C138.245 791.717 141.858 788.235 145.949 785.406C149.823 782.272 154.176 779.965 158.311 777.484C162.664 775.395 166.93 773.175 171.457 771.739C189.26 765.035 207.89 764.6 224.343 767.516C240.928 770.52 255.248 777.876 266.566 786.494C277.926 795.2 286.197 805.385 291.899 815.135C297.557 824.929 301.083 834.157 302.737 841.904C303.826 845.735 304.261 849.261 304.653 852.307C304.87 853.831 305.088 855.224 305.218 856.486C305.262 857.748 305.305 858.924 305.349 860.012C305.393 862.014 305.436 863.581 305.48 864.756C305.48 865.844 305.48 866.367 305.436 866.367Z" fill="#263238"/>
<path d="M384.396 814.438C384.483 814.438 384.57 815.44 384.657 817.311C384.744 819.444 384.875 822.186 385.005 825.581C385.136 829.194 385.353 833.59 385.092 838.683C385.005 841.251 384.918 843.993 384.831 846.866C384.788 849.783 384.613 852.83 384.265 856.007C383.656 862.406 383.221 869.457 381.915 876.944C381.305 880.687 380.827 884.561 380.043 888.522C379.216 892.483 378.302 896.531 377.431 900.709C373.47 917.25 367.942 935.227 359.89 953.203C351.793 971.137 342.261 987.372 332.598 1001.39C327.548 1008.22 322.847 1014.84 317.841 1020.54C315.36 1023.41 313.14 1026.33 310.746 1028.9C308.352 1031.47 306.002 1033.9 303.826 1036.25C299.516 1041.04 295.076 1044.83 291.376 1048.4C287.72 1051.97 284.325 1054.75 281.496 1057.02C278.84 1059.15 276.708 1060.89 275.053 1062.2C273.574 1063.37 272.746 1063.94 272.703 1063.89C272.659 1063.85 273.356 1063.11 274.749 1061.85C276.316 1060.41 278.362 1058.58 280.886 1056.32C283.585 1053.97 286.893 1051.1 290.462 1047.44C294.075 1043.83 298.384 1039.95 302.607 1035.12C304.783 1032.77 307.047 1030.29 309.397 1027.72C311.748 1025.15 313.924 1022.24 316.362 1019.36C321.28 1013.66 325.851 1007.05 330.856 1000.21C340.346 986.197 349.748 970.092 357.757 952.289C365.722 934.443 371.25 916.641 375.342 900.231C376.256 896.096 377.17 892.091 378.041 888.174C378.824 884.256 379.347 880.382 380 876.682C381.392 869.283 381.915 862.275 382.611 855.92C383.003 852.742 383.264 849.696 383.308 846.823C383.438 843.95 383.612 841.251 383.699 838.683C384.048 833.59 384.004 829.194 384.004 825.625C384.048 822.23 384.048 819.488 384.091 817.355C384.265 815.44 384.309 814.438 384.396 814.438Z" fill="#263238"/>
<path d="M1442.78 1945.45H413.56C385.702 1945.45 363.111 1922.08 363.111 1893.26V320.056C363.111 291.241 385.702 267.867 413.56 267.867H1442.78C1470.64 267.867 1493.23 291.241 1493.23 320.056V1893.26C1493.23 1922.08 1470.64 1945.45 1442.78 1945.45Z" fill="#263238"/>
<path d="M947.866 1869.1C947.866 1895.09 926.407 1916.16 899.942 1916.16C873.477 1916.16 852.017 1895.09 852.017 1869.1C852.017 1843.12 873.477 1822.05 899.942 1822.05C926.407 1822.05 947.866 1843.12 947.866 1869.1Z" fill="#324D8C"/>
<path d="M1043.98 356.532H813.19C804.311 356.532 797.085 349.089 797.085 339.861C797.085 330.677 804.311 323.19 813.19 323.19H1043.98C1052.86 323.19 1060.08 330.633 1060.08 339.861C1060.08 349.045 1052.86 356.532 1043.98 356.532Z" fill="#324D8C"/>
<path d="M1456.62 387.567H397.759V1788.54H1456.62V387.567Z" fill="white"/>
<path d="M1456.62 387.567H1411.44V1788.54H1456.62V387.567Z" fill="#F5F5F5"/>
<path d="M1434.03 890.873C1426.24 890.873 1419.97 884.561 1419.97 876.813V566.899C1419.97 559.108 1426.28 552.84 1434.03 552.84C1441.82 552.84 1448.09 559.151 1448.09 566.899V876.813C1448.13 884.561 1441.82 890.873 1434.03 890.873Z" fill="#E0E0E0"/>
<path d="M1318.55 706.361H537.832C525.427 706.361 515.372 696.306 515.372 683.9C515.372 671.495 525.427 661.44 537.832 661.44H1318.55C1330.96 661.44 1341.01 671.495 1341.01 683.9C1341.01 696.306 1330.96 706.361 1318.55 706.361Z" fill="#E0E0E0"/>
<path d="M1198.46 542.524H707.33C694.925 542.524 684.87 532.469 684.87 520.064C684.87 507.658 694.925 497.604 707.33 497.604H1198.46C1210.86 497.604 1220.92 507.658 1220.92 520.064C1220.92 532.469 1210.86 542.524 1198.46 542.524Z" fill="#EF4193"/>
<path d="M1207.68 796.767H648.654C636.249 796.767 626.194 786.712 626.194 774.307C626.194 761.901 636.249 751.847 648.654 751.847H1207.68C1220.09 751.847 1230.15 761.901 1230.15 774.307C1230.15 786.712 1220.09 796.767 1207.68 796.767Z" fill="#E0E0E0"/>
<path d="M955.309 1190.82H525.209C512.804 1190.82 502.749 1180.76 502.749 1168.36C502.749 1155.95 512.804 1145.9 525.209 1145.9H955.309C967.715 1145.9 977.77 1155.95 977.77 1168.36C977.77 1180.76 967.715 1190.82 955.309 1190.82Z" fill="#E0E0E0"/>
<path d="M1305.93 1096.76H525.209C512.804 1096.76 502.749 1086.7 502.749 1074.3C502.749 1061.89 512.804 1051.84 525.209 1051.84H1305.93C1318.33 1051.84 1328.39 1061.89 1328.39 1074.3C1328.39 1086.7 1318.33 1096.76 1305.93 1096.76Z" fill="#E0E0E0"/>
<path d="M1305.93 1399.71H622.538C610.132 1399.71 600.077 1389.65 600.077 1377.25C600.077 1364.84 610.132 1354.79 622.538 1354.79H1305.93C1318.33 1354.79 1328.39 1364.84 1328.39 1377.25C1328.39 1389.65 1318.33 1399.71 1305.93 1399.71Z" fill="#E0E0E0"/>
<path d="M1305.93 1495.68H525.209C512.804 1495.68 502.749 1485.63 502.749 1473.22C502.749 1460.82 512.804 1450.76 525.209 1450.76H1305.93C1318.33 1450.76 1328.39 1460.82 1328.39 1473.22C1328.39 1485.63 1318.33 1495.68 1305.93 1495.68Z" fill="#E0E0E0"/>
<path d="M1305.93 1593.18H525.209C512.804 1593.18 502.749 1583.13 502.749 1570.72C502.749 1558.32 512.804 1548.26 525.209 1548.26H1305.93C1318.33 1548.26 1328.39 1558.32 1328.39 1570.72C1328.39 1583.13 1318.33 1593.18 1305.93 1593.18Z" fill="#E0E0E0"/>
<path d="M560.336 1377.25C560.336 1390.13 549.889 1400.58 537.005 1400.58C524.121 1400.58 513.674 1390.13 513.674 1377.25C513.674 1364.36 524.121 1353.92 537.005 1353.92C549.889 1353.92 560.336 1364.36 560.336 1377.25Z" fill="#EF4193"/>
<path d="M1305.93 1009.05H622.538C610.132 1009.05 600.077 998.994 600.077 986.589C600.077 974.184 610.132 964.129 622.538 964.129H1305.93C1318.33 964.129 1328.39 974.184 1328.39 986.589C1328.39 998.994 1318.33 1009.05 1305.93 1009.05Z" fill="#E0E0E0"/>
<path d="M537.005 1009.92C549.89 1009.92 560.336 999.475 560.336 986.589C560.336 973.704 549.89 963.259 537.005 963.259C524.12 963.259 513.674 973.704 513.674 986.589C513.674 999.475 524.12 1009.92 537.005 1009.92Z" fill="#EF4193"/>
<path d="M1284.12 1736H1108.92C1089.16 1736 1073.14 1719.98 1073.14 1700.22C1073.14 1680.46 1089.16 1664.44 1108.92 1664.44H1284.12C1303.88 1664.44 1319.9 1680.46 1319.9 1700.22C1319.9 1719.98 1303.88 1736 1284.12 1736Z" fill="#EF4193"/>
<path d="M381.567 47.6623L199.968 138.765C186.387 144.554 177.594 157.873 177.594 172.629V257.594C177.594 333.506 198.792 408.677 242.364 475.1C275.097 524.939 318.451 588.663 390.664 625.052H423.266C503.619 600.546 563.601 535.211 600.295 479.322C643.866 412.943 665.064 337.728 665.064 261.816V172.586C665.064 157.83 656.272 144.51 642.691 138.721L435.802 50.5786C426.487 46.7047 390.795 43.7448 381.567 47.6623Z" fill="#EF4193"/>
<path opacity="0.3" d="M381.567 47.6623L199.968 138.765C186.387 144.554 177.594 157.873 177.594 172.629V257.594C177.594 333.506 198.792 408.677 242.364 475.1C275.097 524.939 318.451 588.663 390.664 625.052H423.266C503.619 600.546 563.601 535.211 600.295 479.322C643.866 412.943 665.064 337.728 665.064 261.816V172.586C665.064 157.83 656.272 144.51 642.691 138.721L435.802 50.5786C426.487 46.7047 390.795 43.7448 381.567 47.6623Z" fill="black"/>
<path d="M374.254 50.6222L167.365 138.765C153.784 144.554 144.992 157.873 144.992 172.629V257.594C144.992 333.506 166.19 408.677 209.761 475.1C246.412 530.989 303.216 588.489 390.62 625.052C470.973 600.546 530.955 535.211 567.649 479.322C611.22 412.943 632.418 337.728 632.418 261.816V172.586C632.418 157.83 623.626 144.51 610.045 138.721L403.113 50.6222C393.885 46.7047 383.438 46.7047 374.254 50.6222Z" fill="#EF4193"/>
<path d="M631.722 238.834C631.766 238.834 631.809 239.182 631.853 239.835C631.896 240.619 631.94 241.576 632.027 242.751C632.114 245.537 632.244 249.281 632.418 253.981C632.593 258.857 632.854 264.863 632.462 271.784C632.331 275.266 632.244 278.966 632.114 282.927C632.027 284.886 631.983 286.932 631.896 289.021C631.722 291.11 631.504 293.2 631.33 295.376C630.46 304.081 629.894 313.657 628.066 323.799C627.239 328.892 626.586 334.159 625.541 339.556C624.366 344.91 623.191 350.438 621.972 356.096C616.531 378.6 609.044 403.019 598.118 427.438C587.149 451.813 574.178 473.838 561.076 492.946C554.199 502.261 547.844 511.271 541.053 519.019C537.702 522.936 534.698 526.897 531.434 530.38C528.169 533.862 525.035 537.213 522.031 540.391C516.199 546.92 510.192 552.1 505.186 556.931C502.618 559.282 500.355 561.589 498.091 563.504C495.828 565.376 493.738 567.117 491.823 568.684C488.167 571.687 485.25 574.081 483.117 575.822C482.203 576.562 481.463 577.128 480.81 577.65C480.288 578.042 479.983 578.216 479.983 578.216C479.94 578.173 480.201 577.955 480.68 577.476C481.246 576.954 481.986 576.301 482.856 575.474C484.946 573.646 487.731 571.165 491.301 568.031C493.172 566.42 495.175 564.636 497.438 562.677C499.658 560.675 501.878 558.368 504.403 555.974C509.321 551.099 515.198 545.832 520.943 539.259C523.903 536.038 526.994 532.687 530.215 529.204C533.436 525.679 536.439 521.761 539.704 517.8C546.407 510.052 552.675 501.042 559.466 491.727C572.393 472.662 585.234 450.768 596.16 426.48C607.042 402.192 614.528 377.947 620.057 355.574C621.319 349.959 622.538 344.475 623.713 339.121C624.801 333.767 625.498 328.5 626.368 323.451C628.24 313.353 628.936 303.82 629.894 295.158C630.112 292.982 630.329 290.893 630.547 288.803C630.634 286.714 630.721 284.712 630.851 282.753C631.026 278.836 631.2 275.136 631.374 271.654C631.853 264.733 631.722 258.769 631.679 253.894C631.679 249.15 631.679 245.407 631.679 242.664C631.722 241.489 631.722 240.532 631.722 239.748C631.635 239.182 631.679 238.834 631.722 238.834Z" fill="#263238"/>
<path d="M470.625 353.006H448.556V232.958C448.556 204.709 425.573 181.683 397.28 181.683C369.031 181.683 346.004 204.665 346.004 232.958V353.006H323.935V232.958C323.935 192.521 356.843 159.658 397.237 159.658C437.631 159.658 470.538 192.565 470.538 232.958V353.006H470.625Z" fill="#F5F5F5"/>
<path d="M470.799 426.393H323.805C309.832 426.393 298.515 415.076 298.515 401.104V296.813C298.515 282.841 309.832 271.523 323.805 271.523H470.843C484.815 271.523 496.132 282.841 496.132 296.813V401.104C496.132 415.076 484.772 426.393 470.799 426.393Z" fill="white"/>
<path d="M470.799 426.393C470.799 426.219 473.15 426.437 477.372 425.262C481.463 424.13 487.775 421.083 492.041 413.901C494.174 410.375 495.523 405.892 495.523 400.886C495.479 395.794 495.479 390.266 495.436 384.303C495.392 372.376 495.349 358.839 495.262 343.909C495.175 328.936 495.131 312.57 495.044 295.028C494.522 286.584 489.037 278.227 480.68 274.614C476.501 272.699 472.018 272.35 467.143 272.525C462.311 272.525 457.436 272.525 452.474 272.568C412.907 272.612 369.379 272.612 323.718 272.655C318.277 272.699 312.836 274.527 308.657 277.922C304.478 281.317 301.388 286.018 300.213 291.198C299.603 293.809 299.473 296.377 299.516 299.207C299.516 301.949 299.516 304.735 299.516 307.433C299.516 312.918 299.516 318.359 299.516 323.713C299.473 345.259 299.473 366.021 299.429 385.826C299.821 395.663 297.775 405.805 302.868 413.553C307.482 421.388 316.318 425.871 324.893 425.436C342.478 425.479 358.888 425.523 373.862 425.566C403.679 425.697 427.88 425.828 444.726 425.915C452.996 426.002 459.482 426.089 464.009 426.132C466.142 426.176 467.796 426.219 469.014 426.263C470.233 426.306 470.799 426.35 470.799 426.393C470.799 426.437 470.233 426.48 469.101 426.524C467.883 426.568 466.185 426.567 464.096 426.655C459.569 426.698 453.083 426.785 444.813 426.872C427.967 426.959 403.766 427.09 373.949 427.22C358.976 427.264 342.566 427.307 324.98 427.351C315.926 427.873 306.22 423.085 301.257 414.598C298.689 410.462 297.427 405.413 297.47 400.495C297.47 395.663 297.47 390.788 297.427 385.826C297.427 366.021 297.383 345.259 297.34 323.713C297.34 318.315 297.34 312.918 297.34 307.433C297.34 304.691 297.34 301.949 297.34 299.207C297.296 296.508 297.383 293.505 298.08 290.675C299.342 284.973 302.737 279.837 307.308 276.137C311.878 272.394 317.842 270.435 323.761 270.348C369.422 270.392 412.907 270.392 452.517 270.435C457.479 270.435 462.355 270.435 467.186 270.479C471.887 270.305 477.154 270.696 481.55 272.786C490.561 276.703 496.437 285.8 496.959 294.898C497.09 312.613 496.916 328.936 496.916 343.909C496.872 358.839 496.785 372.376 496.742 384.303C496.698 390.222 496.698 395.75 496.655 400.886C496.611 406.066 495.131 410.767 492.824 414.38C488.297 421.736 481.725 424.696 477.502 425.697C473.193 426.742 470.799 426.393 470.799 426.393Z" fill="#263238"/>
<path d="M412.472 352.963C416.346 349.089 418.74 343.735 418.74 337.772C418.74 325.758 408.989 316.052 397.019 316.052C385.005 316.052 375.299 325.802 375.299 337.772C375.299 347.696 382.002 356.01 391.099 358.578L386.442 379.21H407.118L402.939 358.578C406.595 357.577 409.86 355.618 412.472 352.963Z" fill="#EF4193"/>
<path d="M1760.62 508.268V684.64C1761.01 715.153 1765.5 763.033 1717.22 761.422C1675.44 756.896 1664.38 717.329 1664.03 688.862C1663.86 675.369 1663.73 664.095 1663.6 662.703C1663.6 662.703 1617.89 658.959 1614.02 613.821C1612.15 592.014 1611.97 546.746 1612.28 505.787C1612.63 461.824 1646.71 425.479 1690.58 422.258L1694.94 421.953C1742.21 421.3 1761.27 461.041 1760.62 508.268Z" fill="#FFBF9D"/>
<path d="M1663.64 662.746C1663.64 662.746 1692.24 662.354 1721.23 641.069C1721.23 641.069 1709.3 675.151 1663.9 674.368L1663.64 662.746Z" fill="#FF9A6C"/>
<path d="M1689.54 524.33C1690.45 525.244 1695.63 521.065 1703.21 520.847C1710.78 520.543 1716.44 524.373 1717.22 523.372C1717.62 522.937 1716.7 521.283 1714.22 519.542C1711.78 517.8 1707.69 516.19 1702.99 516.364C1698.29 516.538 1694.37 518.41 1692.15 520.325C1689.84 522.197 1689.1 523.894 1689.54 524.33Z" fill="#263238"/>
<path d="M1689.41 545.702C1689.54 548.923 1692.37 551.491 1695.76 551.447C1699.12 551.404 1701.77 548.705 1701.64 545.484C1701.51 542.263 1698.68 539.695 1695.33 539.738C1691.93 539.825 1689.28 542.481 1689.41 545.702Z" fill="#263238"/>
<path d="M1670.61 576.954C1670.61 576.562 1666.25 576.127 1659.16 575.735C1657.37 575.692 1655.67 575.43 1655.28 574.255C1654.76 572.993 1655.37 571.034 1656.07 568.901C1657.42 564.505 1658.85 559.848 1660.33 555.016C1666.21 535.255 1670.34 519.063 1669.52 518.845C1668.73 518.627 1663.29 534.428 1657.42 554.189C1656.02 559.064 1654.67 563.722 1653.37 568.161C1652.85 570.207 1651.84 572.601 1652.98 575.213C1653.54 576.519 1654.93 577.389 1656.07 577.607C1657.24 577.868 1658.24 577.824 1659.11 577.824C1666.21 577.65 1670.61 577.346 1670.61 576.954Z" fill="#263238"/>
<path d="M1692.76 492.119C1693.5 493.817 1699.55 492.555 1706.82 492.903C1714.09 493.12 1720.05 494.861 1720.88 493.251C1721.27 492.467 1720.14 490.944 1717.66 489.421C1715.22 487.941 1711.39 486.635 1707.04 486.417C1702.69 486.243 1698.77 487.244 1696.24 488.55C1693.68 489.856 1692.46 491.336 1692.76 492.119Z" fill="#263238"/>
<path d="M1620.9 503.437C1621.68 504.786 1627.6 503.306 1634.74 503.045C1641.88 502.697 1647.84 503.741 1648.58 502.305C1648.93 501.608 1647.75 500.39 1645.23 499.301C1642.75 498.213 1638.92 497.386 1634.65 497.56C1630.34 497.734 1626.55 498.866 1624.12 500.172C1621.68 501.478 1620.55 502.784 1620.9 503.437Z" fill="#263238"/>
<path d="M1552.34 465.263C1552.82 463.435 1554.17 461.955 1555.78 460.997C1559.3 458.908 1563.4 459.169 1567.31 459.126C1579.28 458.951 1591.21 455.295 1601.26 448.81C1605.97 442.019 1611.32 435.621 1617.07 429.658C1630.73 415.555 1642.01 405.935 1653.67 401.234C1668.73 395.184 1693.94 392.703 1709.65 396.838C1725.36 400.973 1739.47 413.727 1741.64 429.788C1750.44 422.345 1763.67 422.389 1774.42 426.698L1774.68 426.567C1786.65 430.833 1793.44 443.456 1796.97 455.643C1800.49 467.831 1802.02 480.846 1808.46 491.771C1809.81 494.034 1811.42 496.777 1810.24 499.171C1809.33 500.999 1806.98 501.782 1804.98 501.478C1802.93 501.173 1801.15 500.041 1799.4 498.953C1800.75 502.13 1802.06 505.352 1803.41 508.529C1799.1 509.269 1794.62 508.921 1790.39 507.658C1787.87 519.063 1784.82 532.077 1781.91 539.782C1776.9 539.782 1772.33 540.13 1769.24 542.916C1765.06 546.659 1763.19 553.754 1756.22 551.055C1752.7 549.706 1749.43 542.263 1748.26 538.65C1740.38 514.71 1737.77 489.072 1740.64 464.044C1735.68 458.777 1729.72 454.468 1723.14 451.421L1723.67 451.9C1711.04 447.504 1696.77 443.195 1684.8 449.114C1675.52 453.728 1670.04 463.348 1663.12 471.052C1649.97 485.634 1632.21 493.556 1612.58 494.383C1611.93 507.093 1612.97 525.069 1612.32 537.779L1601.61 517.409V517.496C1600.74 516.016 1600 514.492 1599.31 513.012L1599.04 512.577V512.534C1597.91 510.096 1596.87 507.702 1595.48 505.308C1595.43 505.351 1595.39 505.395 1595.35 505.395C1588.47 511.489 1578.28 502.174 1583.72 494.774C1584.81 493.294 1586.07 491.989 1587.55 490.9C1584.42 493.86 1579.72 495.253 1575.58 493.991C1571.45 492.729 1568.27 488.55 1568.62 484.241C1568.88 481.281 1570.97 478.669 1573.62 477.494C1568.05 477.929 1562.35 476.711 1557.52 473.925C1554.39 472.271 1551.29 469.267 1552.34 465.263Z" fill="#263238"/>
<path d="M1727.5 435.011C1727.41 435.142 1729.37 436.186 1732.02 439.146C1734.63 442.063 1737.55 447.199 1738.94 454.163C1739.64 457.602 1740.12 461.476 1740.12 465.654C1740.12 469.833 1739.81 474.273 1739.47 478.974C1739.16 483.675 1738.81 488.637 1739.12 493.773C1739.25 496.341 1739.6 498.953 1740.12 501.608C1740.69 504.176 1741.38 506.962 1743.3 509.182C1744.86 510.966 1747.43 511.793 1749.65 511.315C1751.92 510.923 1753.92 509.704 1755.4 508.094C1758.31 504.698 1759.01 500.389 1759.75 496.602L1758.79 496.733C1760.36 500.128 1761.93 503.523 1764.28 506.178C1766.58 508.877 1769.81 510.662 1773.07 510.966C1774.68 511.097 1776.33 510.836 1777.73 510.139C1779.16 509.443 1780.17 508.268 1780.91 507.005C1781.6 505.743 1781.95 504.35 1781.86 503.001C1781.78 501.651 1781.25 500.389 1780.43 499.475L1779.95 499.91C1783.43 503.871 1787.09 506.004 1789.65 507.179C1790.96 507.789 1791.96 508.137 1792.66 508.355C1793.35 508.572 1793.75 508.659 1793.75 508.616C1793.75 508.572 1793.4 508.442 1792.74 508.181C1792.09 507.919 1791.09 507.484 1789.83 506.875C1787.35 505.612 1783.82 503.436 1780.47 499.475L1779.99 499.91C1781.51 501.521 1781.6 504.35 1780.3 506.614C1779.64 507.745 1778.69 508.79 1777.42 509.356C1776.16 509.965 1774.68 510.183 1773.2 510.052C1770.2 509.748 1767.19 508.094 1765.06 505.525C1762.84 502.957 1761.32 499.693 1759.75 496.254L1759.1 494.818L1758.79 496.385C1758.05 500.172 1757.31 504.307 1754.66 507.354C1753.35 508.833 1751.48 509.922 1749.52 510.27C1747.56 510.662 1745.47 510.009 1744.12 508.442C1742.43 506.527 1741.73 503.871 1741.16 501.347C1740.6 498.779 1740.29 496.211 1740.16 493.686C1739.86 488.593 1740.16 483.675 1740.42 479.017C1740.73 474.316 1741.03 469.833 1740.95 465.654C1740.9 461.432 1740.42 457.515 1739.64 454.033C1738.12 446.981 1735.03 441.801 1732.28 438.929C1729.54 435.969 1727.5 435.011 1727.5 435.011Z" fill="#324D8C"/>
<path d="M1587.73 478.931C1587.73 478.931 1587.86 479.061 1588.08 479.235C1588.38 479.453 1588.77 479.714 1589.21 480.062C1589.69 480.41 1590.34 480.846 1591.12 481.281C1591.91 481.716 1592.78 482.282 1593.87 482.717C1598.04 484.72 1604.79 486.678 1613.19 486.2C1621.51 485.721 1631.52 482.761 1640.44 476.145C1649.45 469.659 1657.37 460.083 1663.86 449.158C1667.12 443.673 1669.82 438.058 1672.78 432.922C1675.7 427.742 1678.96 422.954 1682.88 419.168C1686.75 415.381 1691.24 412.551 1695.89 411.246C1698.2 410.549 1700.55 410.419 1702.77 410.462C1704.99 410.593 1707.13 411.028 1709.04 411.681C1712.91 412.987 1716.09 415.12 1718.44 417.339C1720.84 419.559 1722.45 421.91 1723.54 423.956C1725.58 428.091 1725.71 430.789 1725.89 430.746C1725.89 430.746 1725.89 430.572 1725.84 430.267C1725.8 429.875 1725.71 429.44 1725.62 428.874C1725.41 427.655 1724.88 425.914 1723.93 423.781C1722.88 421.692 1721.27 419.255 1718.88 416.904C1716.48 414.597 1713.31 412.334 1709.3 410.941C1707.3 410.245 1705.12 409.766 1702.82 409.635C1700.51 409.548 1698.07 409.722 1695.68 410.375C1690.85 411.681 1686.19 414.554 1682.23 418.428C1678.18 422.302 1674.87 427.133 1671.91 432.356C1668.91 437.58 1666.25 443.151 1662.99 448.592C1656.55 459.474 1648.75 468.919 1639.92 475.361C1631.17 481.934 1621.37 484.894 1613.19 485.46C1604.92 486.025 1598.26 484.197 1594.08 482.369C1589.82 480.497 1587.81 478.8 1587.73 478.931Z" fill="#324D8C"/>
<path d="M1583.64 459.082C1583.59 459.125 1584.16 459.561 1585.25 460.214C1586.33 460.91 1587.95 461.737 1590.03 462.651C1592.12 463.565 1594.69 464.436 1597.61 465.132C1600.57 465.785 1603.83 466.307 1607.32 466.438C1610.8 466.525 1614.11 466.264 1617.11 465.785C1620.07 465.263 1622.72 464.566 1624.86 463.783C1626.99 462.999 1628.69 462.259 1629.82 461.65C1630.95 461.041 1631.56 460.692 1631.52 460.649C1631.43 460.475 1628.95 461.737 1624.64 463.086C1622.51 463.783 1619.89 464.392 1616.98 464.827C1614.06 465.219 1610.8 465.48 1607.4 465.393C1604.01 465.263 1600.79 464.827 1597.87 464.218C1595 463.565 1592.43 462.782 1590.34 461.998C1586.12 460.388 1583.72 458.908 1583.64 459.082Z" fill="#324D8C"/>
<path d="M1620.55 524.33C1621.46 525.244 1626.64 521.065 1634.22 520.847C1641.79 520.543 1647.45 524.373 1648.23 523.372C1648.62 522.937 1647.71 521.283 1645.23 519.542C1642.79 517.8 1638.7 516.19 1634 516.364C1629.3 516.538 1625.38 518.41 1623.16 520.325C1620.85 522.197 1620.11 523.894 1620.55 524.33Z" fill="#263238"/>
<path d="M1628.3 545.701C1628.43 548.922 1631.26 551.49 1634.65 551.447C1638 551.403 1640.66 548.704 1640.53 545.483C1640.4 542.262 1637.57 539.694 1634.22 539.738C1630.78 539.825 1628.17 542.48 1628.3 545.701Z" fill="#263238"/>
<path d="M1759.45 542.001C1760.19 541.61 1789.78 530.554 1791.05 561.502C1792.31 592.449 1761.01 587.313 1760.93 586.443C1760.84 585.572 1759.45 542.001 1759.45 542.001Z" fill="#FFBF9D"/>
<path d="M1769.89 574.342C1770.02 574.255 1770.46 574.69 1771.37 575.082C1772.29 575.43 1773.81 575.692 1775.42 574.995C1778.64 573.646 1781.17 568.379 1781.08 562.764C1781.04 559.935 1780.34 557.279 1779.25 555.103C1778.21 552.883 1776.68 551.36 1775.03 551.142C1773.37 550.837 1772.24 551.882 1771.89 552.753C1771.5 553.623 1771.72 554.233 1771.59 554.32C1771.5 554.407 1770.89 553.841 1771.11 552.535C1771.2 551.926 1771.55 551.186 1772.24 550.533C1772.98 549.88 1774.03 549.532 1775.2 549.619C1777.6 549.706 1779.82 551.795 1781.04 554.189C1782.39 556.583 1783.21 559.586 1783.26 562.72C1783.3 568.945 1780.34 574.908 1775.94 576.388C1773.81 577.041 1771.94 576.475 1770.98 575.779C1769.98 575.082 1769.81 574.386 1769.89 574.342Z" fill="#FF9A6C"/>
<path d="M1692.63 583.352C1692.89 583.396 1692.89 585.181 1691.8 587.792C1690.72 590.36 1688.36 593.712 1684.66 596.062C1681.01 598.413 1676.92 599.196 1674.13 598.892C1671.3 598.631 1669.73 597.716 1669.87 597.455C1669.95 597.107 1671.61 597.455 1674.17 597.281C1676.74 597.151 1680.22 596.237 1683.49 594.147C1686.8 592.058 1689.06 589.272 1690.41 587.052C1691.72 584.876 1692.28 583.265 1692.63 583.352Z" fill="#263238"/>
<path d="M1848.5 1807.21L1857.73 1911.85L1890.42 1992.64C1892.77 1998.47 1889.38 2004.95 1883.07 2006.74C1879.5 2007.74 1875.71 2007.13 1872.75 2005C1854.08 1991.42 1786.78 1941.45 1786 1934.96C1785.04 1926.52 1767.85 1823.66 1767.85 1823.66L1848.5 1807.21Z" fill="#324D8C"/>
<path d="M1883.07 2006.69L1784.17 1922.99L1785.13 1930.74C1785.78 1934.96 1785.87 1937.27 1788.83 1939.92C1796.75 1947.02 1819.95 1968.69 1871.7 2006.74C1874.71 2008.91 1879.45 2007.83 1883.07 2006.69Z" fill="#263238"/>
<path d="M1803.63 1890.35C1806.63 1891.87 1807.98 1895.74 1806.46 1898.62C1804.93 1901.49 1800.8 1902.8 1797.75 1901.32C1794.75 1899.84 1792.96 1895.22 1794.79 1892.57C1796.62 1889.87 1801.62 1888.56 1804.15 1890.69" fill="white"/>
<path d="M1852.55 1963.65C1853.21 1963.86 1855.12 1958.16 1861.39 1954.55C1867.53 1950.76 1873.84 1951.63 1873.92 1950.98C1874.01 1950.72 1872.49 1950.02 1869.88 1949.98C1867.26 1949.89 1863.52 1950.59 1860.13 1952.63C1856.69 1954.68 1854.42 1957.51 1853.38 1959.77C1852.25 1961.99 1852.25 1963.56 1852.55 1963.65Z" fill="#263238"/>
<path d="M1862.04 1976.83C1862.61 1977.23 1865.78 1973.48 1871.36 1971.35C1876.88 1969.13 1881.93 1969.61 1882.06 1968.96C1882.33 1968.39 1876.71 1966.69 1870.44 1969.22C1864.09 1971.66 1861.43 1976.57 1862.04 1976.83Z" fill="#263238"/>
<path d="M1835.79 1947.19C1836.36 1947.63 1841.24 1941.84 1849.59 1937.83C1857.86 1933.7 1865.7 1933.26 1865.65 1932.57C1865.78 1932 1857.34 1931.35 1848.46 1935.79C1839.49 1940.1 1835.23 1946.93 1835.79 1947.19Z" fill="#263238"/>
<path d="M1830.14 1915.59C1830.48 1916.2 1836.36 1913.15 1844.33 1912.11C1852.25 1910.93 1858.82 1912.2 1858.99 1911.54C1859.26 1911.02 1852.51 1908.58 1843.98 1909.85C1835.45 1910.98 1829.74 1915.16 1830.14 1915.59Z" fill="#263238"/>
<path d="M1826.61 1884.95C1827 1885.51 1832.79 1881.42 1841.28 1880.94C1849.72 1880.29 1856.08 1883.56 1856.38 1882.95C1856.56 1882.73 1855.16 1881.51 1852.47 1880.38C1849.77 1879.25 1845.63 1878.33 1841.1 1878.64C1836.53 1878.94 1832.62 1880.38 1830.09 1881.9C1827.57 1883.38 1826.44 1884.73 1826.61 1884.95Z" fill="#263238"/>
<path d="M1840.41 1875.11C1840.54 1875.11 1840.63 1873.68 1840.1 1871.15C1839.58 1868.63 1838.36 1865.01 1835.58 1861.14C1834.14 1859.31 1832.62 1856.96 1829.35 1855.87C1827.74 1855.35 1825.48 1855.83 1824.3 1857.35C1823.13 1858.83 1822.91 1860.57 1823.08 1862.23C1823.95 1868.84 1830.74 1874.63 1838.75 1874.81C1846.81 1874.85 1853.55 1869.84 1856.03 1863.79C1856.56 1862.23 1856.82 1860.4 1855.77 1858.7C1854.73 1857 1852.38 1856.53 1850.81 1856.92C1847.55 1857.7 1845.67 1859.7 1843.89 1861.23C1840.41 1864.49 1838.36 1867.8 1837.23 1870.11C1836.1 1872.46 1835.79 1873.85 1835.92 1873.89C1836.36 1874.11 1838.14 1868.5 1845.07 1862.45C1846.81 1861.05 1848.85 1859.27 1851.2 1858.83C1852.33 1858.61 1853.38 1858.96 1853.9 1859.79C1854.42 1860.57 1854.34 1861.92 1853.86 1863.14C1851.73 1868.1 1845.54 1872.63 1838.75 1872.5C1831.96 1872.41 1826.04 1867.32 1825.3 1862.01C1825.13 1860.75 1825.35 1859.4 1826 1858.57C1826.65 1857.74 1827.7 1857.44 1828.79 1857.7C1831.05 1858.31 1832.75 1860.36 1834.14 1862.05C1839.75 1869.28 1839.93 1875.29 1840.41 1875.11Z" fill="#263238"/>
<path d="M1584.9 1812.61L1589.03 1901.18C1589.03 1901.18 1494.62 1934.87 1493.66 1951.33L1676.7 1949.98L1676.31 1811.69L1584.9 1812.61Z" fill="#324D8C"/>
<path d="M1645.58 1893.31C1649.15 1894.18 1651.63 1897.92 1650.8 1901.27C1650.02 1904.62 1646.01 1907.06 1642.44 1906.23C1638.87 1905.41 1635.74 1901.01 1636.96 1897.75C1638.13 1894.48 1643.01 1891.91 1646.27 1893.52" fill="#E0E0E0"/>
<path d="M1676.74 1949.98L1676.13 1936.05L1500.89 1942.54C1500.89 1942.54 1492.75 1945.93 1493.75 1951.33L1676.74 1949.98Z" fill="#263238"/>
<path d="M1586.07 1900.36C1586.12 1901.18 1590.6 1901.53 1595 1904.23C1599.48 1906.8 1601.79 1910.41 1602.61 1910.06C1603.44 1909.89 1602.05 1904.88 1596.65 1901.75C1591.25 1898.53 1585.86 1899.57 1586.07 1900.36Z" fill="#263238"/>
<path d="M1566.92 1907.93C1566.7 1908.76 1570.62 1910.15 1573.67 1913.68C1576.85 1917.12 1577.63 1920.95 1578.54 1920.9C1579.37 1921.03 1579.98 1916.11 1576.06 1911.76C1572.19 1907.45 1566.92 1907.15 1566.92 1907.93Z" fill="#263238"/>
<path d="M1556.21 1929.61C1557.04 1929.78 1558.22 1925.56 1555.91 1920.99C1553.6 1916.38 1549.38 1914.59 1548.99 1915.29C1548.51 1915.98 1551.21 1918.42 1553.08 1922.21C1555.04 1925.99 1555.3 1929.56 1556.21 1929.61Z" fill="#263238"/>
<path d="M1587.51 1880.03C1587.9 1880.81 1591.99 1879.59 1597.04 1879.9C1602.09 1880.07 1606.05 1881.64 1606.49 1880.94C1607.01 1880.33 1603.14 1877.24 1597.17 1876.98C1591.25 1876.68 1587.07 1879.38 1587.51 1880.03Z" fill="#263238"/>
<path d="M1553.08 1176.45C1553.17 1181.59 1574.32 1889.65 1574.32 1889.65H1687.45L1710.39 1283.97C1710.39 1283.97 1737.16 1600.67 1737.16 1607.51C1737.16 1614.34 1760.8 1893.09 1760.8 1893.09L1865.7 1885.03L1858.82 1247.32L1846.02 1153.82L1553.08 1176.45Z" fill="#263238"/>
<path d="M1722.14 1261.51C1722.19 1261.64 1720.53 1262.29 1717.53 1263.33C1714.52 1264.38 1710.17 1265.82 1704.77 1267.51L1703.73 1267.86L1703.64 1266.86C1703.03 1258.33 1702.29 1246.97 1701.64 1234.48C1700.9 1220.94 1700.38 1208.66 1700.12 1199.83C1699.99 1195.39 1699.9 1191.78 1699.9 1189.29C1699.9 1186.81 1699.99 1185.42 1700.12 1185.42C1700.29 1185.42 1700.51 1186.77 1700.77 1189.25C1701.03 1191.73 1701.34 1195.3 1701.68 1199.74C1702.34 1208.62 1703.12 1220.85 1703.86 1234.39C1704.51 1246.88 1705.04 1258.29 1705.3 1266.82L1704.21 1266.16C1709.69 1264.64 1714.13 1263.42 1717.22 1262.59C1720.36 1261.77 1722.1 1261.38 1722.14 1261.51Z" fill="#324D8C"/>
<path d="M1713.57 1187.9C1713.48 1187.82 1713.92 1187.34 1715.09 1186.99C1716.22 1186.64 1718.09 1186.51 1720.1 1187.38C1722.06 1188.12 1724.19 1190.38 1723.88 1193.21C1723.67 1195.87 1721.49 1198.78 1717.88 1199.48C1714.26 1200.09 1711 1198.22 1709.52 1195.91C1707.91 1193.52 1708.47 1190.78 1709.61 1189.21C1710.74 1187.51 1712.26 1186.64 1713.35 1186.25C1714.48 1185.86 1715.13 1185.94 1715.13 1186.07C1715.31 1186.38 1712.57 1186.9 1711 1189.86C1710.26 1191.3 1710.04 1193.3 1711.26 1194.95C1712.44 1196.61 1714.96 1197.91 1717.4 1197.48C1719.79 1197.04 1721.58 1194.91 1721.79 1192.99C1722.1 1191.04 1720.79 1189.38 1719.31 1188.6C1716.14 1186.9 1713.61 1188.21 1713.57 1187.9Z" fill="#324D8C"/>
<path d="M1765.5 1195.17C1764.89 1195.22 1764.02 1192.17 1763.58 1188.34C1763.15 1184.51 1763.28 1181.33 1763.89 1181.29C1764.5 1181.24 1765.37 1184.29 1765.8 1188.16C1766.24 1191.95 1766.11 1195.08 1765.5 1195.17Z" fill="#324D8C"/>
<path d="M1773.33 1194.43C1772.72 1194.43 1772.2 1191.17 1772.16 1187.12C1772.11 1183.07 1772.63 1179.81 1773.24 1179.81C1773.85 1179.81 1774.38 1183.07 1774.42 1187.12C1774.46 1191.17 1773.94 1194.43 1773.33 1194.43Z" fill="#324D8C"/>
<path d="M1636.96 1199.35C1636.35 1199.39 1635.39 1195.74 1634.83 1191.12C1634.26 1186.51 1634.3 1182.77 1634.91 1182.68C1635.52 1182.59 1636.48 1186.29 1637.04 1190.91C1637.61 1195.48 1637.57 1199.26 1636.96 1199.35Z" fill="#324D8C"/>
<path d="M1646.49 1200C1645.92 1200.18 1643.92 1196.43 1643.7 1191.38C1643.44 1186.34 1645.1 1182.46 1645.66 1182.59C1646.27 1182.72 1645.71 1186.6 1645.92 1191.3C1646.14 1196.04 1647.1 1199.83 1646.49 1200Z" fill="#324D8C"/>
<path d="M1610.67 1190.56C1610.8 1190.6 1610.67 1191.69 1610.28 1193.69C1609.93 1195.69 1609.19 1198.52 1608.01 1202C1605.7 1208.93 1601.18 1218.2 1594 1227.25C1586.77 1236.26 1578.46 1243.14 1571.88 1247.36C1568.62 1249.49 1565.83 1251.06 1563.83 1252.02C1561.83 1252.98 1560.74 1253.45 1560.65 1253.37C1560.48 1253.11 1564.74 1250.84 1571.01 1246.36C1577.24 1241.92 1585.25 1235.09 1592.34 1226.21C1599.39 1217.33 1604.01 1208.32 1606.66 1201.61C1609.36 1194.87 1610.32 1190.47 1610.67 1190.56Z" fill="#324D8C"/>
<path d="M1855.29 1238.26C1855.29 1238.39 1854.08 1238.61 1851.86 1238.79C1849.64 1238.96 1846.37 1239 1842.37 1238.61C1834.44 1237.92 1823.34 1235.09 1813.38 1228.51C1803.41 1221.94 1797.14 1213.32 1794.05 1206.75C1792.48 1203.44 1791.57 1200.66 1791.09 1198.7C1790.61 1196.74 1790.48 1195.65 1790.61 1195.61C1790.96 1195.52 1791.92 1199.87 1795.36 1206.18C1798.71 1212.5 1804.93 1220.68 1814.55 1227.03C1824.17 1233.39 1834.79 1236.3 1842.54 1237.31C1850.38 1238.39 1855.29 1237.92 1855.29 1238.26Z" fill="#324D8C"/>
<path d="M1671 1596.84C1670.87 1597.32 1652.11 1593.27 1629.12 1587.79C1606.14 1582.3 1587.6 1577.47 1587.77 1576.99C1587.9 1576.51 1606.66 1580.56 1629.65 1586.05C1652.63 1591.53 1671.13 1596.36 1671 1596.84Z" fill="#324D8C"/>
<path d="M1853.29 1571.07C1853.55 1571.51 1837.23 1580.04 1816.86 1590.09C1796.44 1600.19 1779.69 1607.98 1779.43 1607.55C1779.16 1607.11 1795.49 1598.58 1815.86 1588.53C1836.27 1578.43 1853.03 1570.64 1853.29 1571.07Z" fill="#324D8C"/>
<path d="M1498.15 936.663L1513.6 955.99V922.691H1562.35C1562.35 922.691 1567.75 998.907 1566.62 1015.14C1566.22 1020.85 1563.7 1030.2 1560.65 1040C1554.3 1060.28 1528.66 1066.64 1513.43 1051.84C1508.29 1046.87 1503.07 1041.22 1498.19 1034.86C1476.51 1007 1440.56 939.188 1440.56 939.188L1478.08 916.51L1498.15 936.663Z" fill="#FFBF9D"/>
<path d="M1495.06 933.094C1494.84 933.312 1497.32 936.489 1501.41 941.582C1505.5 946.675 1511.21 953.682 1517.73 961.3C1524.26 968.873 1530.4 975.577 1535.19 980.103C1539.93 984.674 1543.29 987.024 1543.46 986.807C1543.68 986.545 1540.76 983.76 1536.32 978.972C1531.88 974.184 1525.96 967.393 1519.48 959.82C1506.59 944.585 1495.62 932.615 1495.06 933.094Z" fill="#FF9A6C"/>
<path d="M1609.32 702.53L1660.68 682.377L1755.35 677.023L1799.84 693.912L1738.9 727.776L1686.32 725.861L1609.32 702.53Z" fill="#FFBF9D"/>
<path d="M1548.68 1186.12C1553.34 1186.9 1863.52 1200.09 1863.52 1200.09L1852.64 921.211L1851.73 866.454L1834.1 700.571C1834.1 700.571 1787.74 684.64 1764.06 677.023C1764.06 677.023 1739.16 702.965 1691.8 702.269C1645.53 701.572 1635.87 691.169 1635.87 691.169L1571.19 715.98C1571.19 715.98 1525.18 732.477 1517.26 752.848C1509.55 772.652 1495.45 885.823 1495.45 885.823H1562.53L1561.26 1085.74L1548.68 1186.12Z" fill="#324D8C"/>
<g opacity="0.2">
<path d="M1743.73 813.916L1753.35 884.213L1799.84 904.975L1834.27 875.682V810.391L1743.73 813.916Z" fill="black"/>
</g>
<path d="M1833.05 833.852C1833.05 834.417 1813.73 834.896 1789.87 834.896C1766.02 834.896 1746.69 834.417 1746.69 833.852C1746.69 833.286 1766.02 832.807 1789.87 832.807C1813.68 832.763 1833.05 833.242 1833.05 833.852Z" fill="#263238"/>
<path d="M1527.79 781.836C1527.83 781.836 1528.01 782.446 1528.27 783.708C1528.57 785.101 1529.01 786.886 1529.49 789.105C1530.66 793.763 1532.53 800.597 1535.67 808.91C1538.76 817.224 1543.11 827.018 1548.47 837.987C1553.51 849.173 1558.09 862.057 1562.87 875.986L1562.92 876.117V876.291C1562.79 893.005 1562.7 911.287 1562.57 930.395C1562.13 973.052 1561.7 1011.66 1561.39 1039.82C1561.13 1053.66 1560.96 1064.94 1560.83 1072.99C1560.74 1076.78 1560.65 1079.74 1560.57 1082C1560.48 1084.05 1560.39 1085.13 1560.35 1085.13C1560.26 1085.13 1560.22 1084.05 1560.17 1082C1560.13 1079.74 1560.09 1076.73 1560.04 1072.99C1560.04 1064.94 1560 1053.66 1560 1039.82C1560.13 1011.66 1560.35 973.052 1560.57 930.395C1560.74 911.287 1560.91 893.005 1561.05 876.334L1561.09 876.639C1556.39 862.71 1551.9 849.782 1547.03 838.683C1541.81 827.671 1537.54 817.746 1534.58 809.346C1531.58 800.945 1529.88 794.024 1528.88 789.28C1528.4 786.886 1528.09 785.057 1527.92 783.795C1527.79 782.489 1527.75 781.836 1527.79 781.836Z" fill="#263238"/>
<path d="M1856.64 749.235C1856.77 749.235 1856.73 751.367 1856.6 755.198C1856.43 759.376 1856.25 764.817 1855.99 771.39C1855.43 785.406 1854.69 804.122 1853.9 824.798C1852.94 845.473 1852.12 864.19 1851.46 878.206C1851.07 884.778 1850.77 890.219 1850.55 894.398C1850.29 898.228 1850.07 900.318 1849.94 900.318C1849.81 900.318 1849.77 898.185 1849.77 894.354C1849.85 890.176 1849.94 884.691 1850.07 878.162C1850.42 864.495 1851.03 845.56 1851.9 824.711C1852.77 803.861 1853.73 784.97 1854.6 771.303C1855.03 764.469 1855.47 758.941 1855.86 755.154C1856.21 751.28 1856.51 749.191 1856.64 749.235Z" fill="#263238"/>
<g opacity="0.3">
<path d="M1527.96 791.979C1526.44 822.578 1537.98 852.22 1558.43 875.072C1552.12 846.301 1536.36 819.531 1527.96 791.979Z" fill="black"/>
</g>
<g opacity="0.3">
<path d="M1664.21 1068.07C1678.7 1066.85 1691.76 1058.23 1701.42 1047.35C1711.09 1036.47 1719.79 1024.11 1726.41 1011.14C1735.42 993.51 1739.86 974.314 1741.08 954.205C1723.01 1002.69 1696.5 1041.04 1664.21 1068.07Z" fill="black"/>
</g>
<path d="M1746.78 933.137C1746.87 933.137 1746.74 933.747 1746.52 934.922C1746.21 936.315 1745.82 937.969 1745.39 939.971C1744.91 942.147 1744.25 944.802 1743.3 947.849C1742.38 950.896 1741.43 954.422 1740.03 958.165C1737.51 965.783 1733.85 974.619 1729.32 984.195C1724.67 993.727 1719.01 1003.96 1712.26 1014.18C1705.43 1024.37 1698.2 1033.55 1691.24 1041.52C1684.1 1049.35 1677.35 1056.15 1671.26 1061.37C1668.3 1064.07 1665.43 1066.29 1662.94 1068.29C1660.46 1070.29 1658.29 1071.9 1656.41 1073.16C1654.72 1074.3 1653.32 1075.25 1652.15 1076.08C1651.15 1076.73 1650.63 1077.04 1650.58 1076.99C1650.54 1076.95 1651.02 1076.52 1651.93 1075.78C1653.02 1074.91 1654.37 1073.86 1655.98 1072.56C1657.76 1071.21 1659.9 1069.51 1662.29 1067.42C1664.69 1065.37 1667.51 1063.11 1670.39 1060.32C1676.35 1055.01 1682.92 1048.18 1689.93 1040.3C1696.81 1032.29 1703.9 1023.15 1710.69 1013.05C1717.4 1002.91 1723.06 992.77 1727.76 983.368C1732.33 973.879 1736.11 965.173 1738.77 957.643C1740.25 953.943 1741.29 950.505 1742.3 947.458C1743.34 944.454 1744.12 941.843 1744.69 939.71C1745.26 937.751 1745.78 936.141 1746.17 934.791C1746.52 933.703 1746.74 933.137 1746.78 933.137Z" fill="#263238"/>
<path d="M1737.86 845.865C1737.94 845.865 1737.81 846.866 1737.51 848.694C1737.16 850.74 1736.68 853.439 1736.07 856.791C1735.46 860.316 1734.63 864.625 1733.37 869.544C1732.15 874.463 1730.98 880.121 1729.02 886.215C1728.11 889.305 1727.15 892.483 1726.19 895.834C1725.19 899.186 1723.88 902.581 1722.66 906.107C1720.31 913.245 1717.22 920.645 1714.05 928.523C1707.34 944.019 1699.03 960.69 1688.89 977.405C1678.61 994.032 1667.56 1009.01 1656.81 1022.06C1651.28 1028.46 1646.1 1034.6 1640.79 1039.95C1638.18 1042.65 1635.74 1045.35 1633.21 1047.74C1630.69 1050.14 1628.25 1052.45 1625.95 1054.67C1621.37 1059.15 1616.89 1062.81 1613.06 1066.11C1609.27 1069.46 1605.79 1072.16 1602.96 1074.3C1600.22 1076.34 1598.04 1078 1596.39 1079.26C1594.87 1080.39 1594.08 1080.91 1594.04 1080.87C1594 1080.83 1594.74 1080.13 1596.17 1078.91C1597.78 1077.6 1599.87 1075.86 1602.48 1073.69C1605.27 1071.47 1608.62 1068.68 1612.36 1065.24C1616.11 1061.85 1620.55 1058.15 1625.03 1053.62C1627.29 1051.4 1629.69 1049.05 1632.17 1046.66C1634.65 1044.22 1637.04 1041.52 1639.61 1038.78C1644.84 1033.42 1649.93 1027.24 1655.41 1020.89C1666.03 1007.83 1677 992.9 1687.19 976.36C1697.24 959.733 1705.56 943.192 1712.35 927.827C1715.53 920.036 1718.7 912.68 1721.1 905.585C1722.32 902.059 1723.67 898.707 1724.71 895.356C1725.76 892.048 1726.71 888.87 1727.67 885.823C1729.67 879.773 1730.93 874.158 1732.28 869.283C1733.63 864.408 1734.59 860.142 1735.29 856.66C1736.03 853.352 1736.64 850.653 1737.07 848.651C1737.51 846.779 1737.77 845.822 1737.86 845.865Z" fill="#263238"/>
<path d="M1492.75 759.072C1511.86 788.148 1589.29 905.846 1612.19 940.668C1614.72 944.498 1611.58 949.504 1607.01 948.938L1469.46 931.657C1467.98 931.483 1466.68 930.7 1465.81 929.481L1334.44 750.062C1331.74 746.362 1334.61 741.182 1339.18 741.53L1480.69 751.977C1485.61 752.369 1490.05 754.98 1492.75 759.072Z" fill="#E0E0E0"/>
<path d="M1492.75 759.072C1492.75 759.072 1492.49 758.462 1491.66 757.418C1490.83 756.417 1489.49 754.937 1487.22 753.674C1485 752.325 1481.74 751.585 1478.04 751.455C1474.29 751.15 1470.03 750.802 1465.24 750.41C1445.87 748.886 1418.01 746.71 1383.67 744.011C1375.05 743.358 1366.04 742.662 1356.64 741.922C1351.94 741.574 1347.15 741.182 1342.27 740.834C1341.01 740.747 1339.92 740.616 1338.49 740.616C1337.05 740.66 1335.61 741.269 1334.53 742.27C1332.31 744.185 1331.74 747.842 1333.48 750.366C1345.45 766.776 1358.25 784.361 1371.7 802.817C1398.69 839.684 1428.28 880.208 1459.41 922.778C1461.41 925.477 1463.19 928.001 1465.33 930.83C1466.02 931.57 1466.85 932.136 1467.76 932.484C1468.72 932.876 1469.68 932.92 1470.42 933.007L1475.25 933.616C1481.69 934.443 1488.14 935.227 1494.49 936.054C1507.24 937.664 1519.78 939.231 1532.1 940.755C1556.78 943.845 1580.55 946.805 1603.22 949.634C1604.7 949.808 1605.92 950.026 1607.58 950.113C1609.27 950.113 1610.97 949.417 1612.15 948.198C1613.32 947.023 1614.02 945.369 1614.02 943.671C1614.06 942.017 1613.1 940.276 1612.36 939.275C1609.32 934.617 1606.27 930.047 1603.31 925.52C1597.35 916.51 1591.56 907.717 1585.94 899.23C1574.76 882.297 1564.31 866.497 1554.78 852.09C1535.71 823.362 1520.26 800.118 1509.51 783.926C1504.15 775.96 1500.02 769.78 1497.1 765.47C1495.71 763.425 1494.62 761.858 1493.84 760.682C1493.18 759.594 1492.79 759.072 1492.75 759.072C1492.71 759.115 1493.05 759.681 1493.75 760.769C1494.49 761.945 1495.54 763.599 1496.84 765.644C1499.67 769.997 1503.72 776.309 1508.9 784.361C1519.52 800.64 1534.75 824.058 1553.56 852.917C1563 867.368 1573.36 883.212 1584.51 900.187C1590.08 908.675 1595.82 917.468 1601.74 926.521C1604.7 931.048 1607.71 935.618 1610.75 940.276C1611.62 941.495 1612.02 942.322 1612.06 943.54C1612.06 944.672 1611.58 945.804 1610.75 946.587C1609.97 947.414 1608.84 947.85 1607.71 947.85C1606.53 947.806 1604.96 947.545 1603.57 947.371C1580.89 944.498 1557.13 941.495 1532.45 938.361C1520.13 936.794 1507.55 935.227 1494.84 933.616C1488.48 932.833 1482.04 932.006 1475.6 931.179L1470.77 930.569C1469.9 930.439 1469.2 930.395 1468.64 930.177C1468.03 929.96 1467.5 929.568 1467.07 929.089C1465.15 926.478 1463.24 923.866 1461.32 921.254C1430.16 878.772 1400.47 838.248 1373.48 801.424C1359.99 783.055 1347.15 765.557 1335.13 749.191C1333.92 747.45 1334.31 744.925 1335.87 743.533C1336.61 742.836 1337.62 742.401 1338.66 742.357C1339.66 742.357 1341.05 742.488 1342.23 742.575C1347.1 742.923 1351.89 743.271 1356.59 743.62C1366 744.273 1375.01 744.925 1383.62 745.535C1418.01 747.929 1445.87 749.844 1465.24 751.193C1470.03 751.498 1474.34 751.803 1478.04 752.02C1481.78 752.107 1484.83 752.717 1487.05 753.979C1491.44 756.547 1492.62 759.246 1492.75 759.072Z" fill="#263238"/>
<path d="M1334.44 750.062C1334.44 750.149 1335.44 750.279 1337.31 750.497C1339.4 750.715 1342.19 750.976 1345.67 751.324C1353.16 751.977 1363.69 752.934 1376.75 754.066C1403.39 756.243 1440.34 759.246 1482.43 762.685L1481.61 762.206C1488.22 772.043 1495.06 782.228 1501.89 792.762C1529.79 835.636 1554.12 875.028 1572.54 903.06C1581.68 917.119 1589.29 928.349 1594.61 936.097C1597.22 939.797 1599.26 942.757 1600.83 944.933C1602.27 946.935 1603.05 947.98 1603.14 947.937C1603.18 947.893 1602.53 946.761 1601.22 944.672C1599.79 942.409 1597.83 939.405 1595.39 935.618C1590.21 927.522 1582.94 916.162 1573.97 902.189C1555.91 873.94 1531.79 834.417 1503.89 791.5C1497.06 780.966 1490.18 770.737 1483.52 760.9L1483.22 760.465L1482.69 760.421C1440.56 757.287 1403.6 754.545 1376.97 752.586C1363.91 751.716 1353.33 751.019 1345.84 750.497C1342.36 750.323 1339.57 750.149 1337.49 750.018C1335.44 750.018 1334.44 750.018 1334.44 750.062Z" fill="#263238"/>
<path d="M1416.31 777.789C1416.66 776.134 1418.19 775.482 1419.71 775.743C1421.32 776.222 1422.19 776.613 1423.41 777.832C1424.63 779.051 1425.19 781.184 1424.06 782.533C1422.67 784.231 1419.88 783.621 1418.23 782.185C1416.92 781.097 1415.97 779.443 1416.31 777.789Z" fill="white"/>
<path d="M1480.52 879.555C1480.52 879.555 1485.96 866.628 1472.16 864.93C1458.41 863.276 1422.23 864.93 1422.23 864.93C1422.23 864.93 1402.47 867.019 1406.65 881.209C1406.65 881.209 1394.99 891.656 1401.21 902.929C1407.48 914.203 1409.96 910.851 1409.96 910.851C1409.96 910.851 1408.31 924.606 1418.71 926.695C1418.71 926.695 1430.03 940.058 1440.43 939.231C1450.83 938.404 1495.1 917.119 1498.02 912.941C1500.93 908.762 1505.11 906.411 1502.59 901.754C1502.59 901.754 1508.03 889.523 1496.32 887.695C1496.41 887.651 1495.58 877.466 1480.52 879.555Z" fill="#FFBF9D"/>
<path d="M1417.79 884.213C1417.79 884.518 1421.36 884.779 1427.11 884.866C1432.86 884.996 1440.78 884.996 1449.53 884.866C1458.28 884.561 1466.24 884.909 1472.07 883.516C1478.04 882.124 1480.34 878.641 1480.08 878.598C1479.82 878.293 1477.34 881.079 1471.77 881.949C1466.28 882.864 1458.28 882.298 1449.53 882.602C1440.78 882.733 1432.86 882.994 1427.11 883.299C1421.32 883.56 1417.79 883.908 1417.79 884.213Z" fill="#FF9A6C"/>
<path d="M1427.63 905.106C1427.59 905.236 1428.63 905.715 1430.64 906.15C1432.64 906.585 1435.6 906.934 1439.25 906.673C1442.91 906.455 1447.18 905.671 1451.79 904.409C1456.4 903.147 1461.32 901.362 1466.5 899.752C1471.68 898.141 1476.69 897.009 1481.3 896.705C1485.83 896.487 1490.7 896.618 1493.92 894.137C1495.54 893.005 1496.62 891.438 1496.93 889.827C1497.23 888.26 1496.93 886.868 1496.41 885.91C1495.32 883.908 1493.84 883.821 1493.88 883.908C1493.75 884.082 1494.97 884.517 1495.58 886.258C1496.28 887.956 1495.93 891.046 1493.01 892.744C1490.18 894.659 1486.05 894.441 1481.17 894.528C1476.3 894.703 1471.07 895.878 1465.81 897.488C1460.67 899.186 1455.75 900.796 1451.18 902.276C1446.7 903.669 1442.56 904.54 1439.08 904.975C1432.07 905.889 1427.72 904.714 1427.63 905.106Z" fill="#FF9A6C"/>
<path d="M1442.43 922.734C1442.52 923.039 1446.09 922.386 1451.75 920.949C1457.4 919.513 1465.15 917.293 1473.6 914.551C1482.04 911.765 1489.62 908.979 1495.01 906.803C1500.41 904.627 1503.68 903.06 1503.59 902.755C1503.37 902.146 1489.75 906.89 1472.9 912.375C1456.01 917.903 1442.26 922.125 1442.43 922.734Z" fill="#FF9A6C"/>
<path d="M1438.91 939.101C1438.95 939.362 1441.91 939.275 1446.61 938.23C1451.31 937.229 1457.62 935.053 1464.24 932.006C1470.86 929.002 1476.64 925.912 1480.87 923.692C1485.05 921.472 1487.61 919.992 1487.48 919.688C1487.18 918.991 1476.38 923.779 1463.32 929.916C1450.27 936.184 1438.82 938.535 1438.91 939.101Z" fill="#FF9A6C"/>
<path d="M1878.63 814.656C1878.63 814.656 1850.51 927.305 1815.38 968.873C1781.34 1009.14 1728.02 990.637 1709.56 938.535C1691.11 886.433 1658.2 767.429 1658.2 767.429L1698.59 736.525L1768.41 871.808L1799.88 779.573L1878.63 814.656Z" fill="#FFBF9D"/>
<path d="M1660.07 770.563L1630.43 727.602C1630.43 727.602 1620.59 725.295 1617.81 723.684C1614.45 721.725 1611.15 704.663 1611.23 701.355C1611.32 698.047 1605.49 690.255 1607.84 688.035C1610.19 685.859 1618.15 685.685 1617.72 682.464C1617.63 681.767 1611.84 674.673 1616.41 669.449C1618.07 667.578 1624.77 665.924 1624.77 665.924L1624.29 649.557C1624.29 649.557 1633.13 630.188 1642.18 637.196C1642.18 637.196 1676.26 663.399 1679.7 667.578C1683.14 671.756 1696.24 726.296 1698.59 736.568" fill="#FFBF9D"/>
<path d="M1698.59 736.568C1698.68 736.568 1698.51 735.567 1698.16 733.696C1697.72 731.606 1697.11 728.908 1696.42 725.512C1694.81 718.418 1692.46 708.102 1689.19 695.435C1687.54 689.124 1685.75 682.159 1683.49 674.76C1682.88 672.932 1682.31 671.06 1681.53 669.145C1680.79 666.968 1678.96 665.532 1677.53 664.183C1674.44 661.44 1671.17 658.785 1667.78 656.043C1661.03 650.559 1653.85 644.944 1646.4 639.154C1644.49 637.805 1642.88 636.02 1640.18 635.019C1637.44 634.105 1634.48 635.28 1632.47 636.847C1628.38 640.112 1625.68 644.508 1623.38 649.122L1623.29 649.34V649.601C1623.33 651.168 1623.38 652.909 1623.42 654.607C1623.55 658.437 1623.64 662.224 1623.77 665.967L1624.55 664.923C1622.51 665.445 1620.5 666.098 1618.55 666.925C1617.59 667.404 1616.59 667.839 1615.63 668.84C1614.93 669.754 1614.28 670.712 1613.98 671.887C1613.28 674.15 1613.76 676.457 1614.5 678.416C1614.85 679.417 1615.32 680.331 1615.85 681.245L1616.59 682.551L1616.76 682.812C1616.72 682.769 1616.76 682.638 1616.72 682.769C1616.72 682.856 1616.72 682.986 1616.67 683.03C1616.59 683.422 1615.8 683.9 1614.98 684.205C1614.15 684.553 1613.24 684.815 1612.32 685.119C1611.41 685.38 1610.45 685.685 1609.54 686.033C1608.58 686.469 1607.62 686.686 1606.71 688.036C1606.01 689.428 1606.4 690.56 1606.62 691.518C1606.88 692.519 1607.23 693.389 1607.62 694.26C1608.36 696.001 1609.19 697.655 1609.8 699.266C1610.1 700.093 1610.32 700.833 1610.32 701.573C1610.32 702.574 1610.45 703.444 1610.58 704.358C1610.84 706.143 1611.19 707.884 1611.54 709.625C1612.28 713.064 1613.1 716.372 1614.32 719.506C1614.98 721.073 1615.5 722.64 1616.94 724.076C1618.59 725.295 1620.03 725.556 1621.55 726.122C1624.55 727.036 1627.47 727.776 1630.34 728.472L1629.86 728.168C1639 741.182 1646.49 751.803 1651.8 759.333C1654.33 762.859 1656.37 765.688 1657.89 767.778C1659.29 769.693 1660.07 770.694 1660.16 770.65C1660.2 770.607 1659.59 769.519 1658.29 767.516C1656.85 765.34 1654.94 762.467 1652.54 758.811C1647.36 751.15 1640.09 740.399 1631.17 727.21L1630.99 726.949L1630.69 726.862C1627.9 726.165 1624.99 725.425 1622.07 724.468C1620.72 723.989 1618.98 723.467 1618.07 722.727C1617.2 721.9 1616.54 720.289 1615.98 718.853C1614.85 715.849 1614.06 712.541 1613.37 709.19C1613.02 707.492 1612.71 705.795 1612.5 704.054C1612.41 703.183 1612.28 702.312 1612.28 701.529C1612.28 700.484 1611.97 699.44 1611.67 698.569C1611.02 696.785 1610.19 695.131 1609.49 693.476C1609.14 692.649 1608.84 691.822 1608.58 690.995C1608.36 690.212 1608.27 689.298 1608.49 688.993C1608.62 688.688 1609.54 688.166 1610.32 687.905C1611.15 687.6 1612.06 687.339 1612.97 687.034C1613.89 686.773 1614.85 686.469 1615.8 686.077C1616.72 685.642 1617.89 685.25 1618.59 683.77C1618.76 683.422 1618.81 683.03 1618.81 682.638C1618.85 682.508 1618.76 682.159 1618.63 681.855L1618.42 681.463L1617.68 680.201C1617.2 679.374 1616.8 678.547 1616.46 677.676C1615.8 675.979 1615.5 674.107 1616.02 672.453C1616.24 671.626 1616.72 670.886 1617.24 670.189C1617.68 669.711 1618.59 669.232 1619.42 668.84C1621.2 668.057 1623.16 667.447 1625.07 666.968L1625.9 666.751L1625.86 665.924C1625.77 662.18 1625.64 658.394 1625.51 654.563C1625.47 652.866 1625.42 651.124 1625.38 649.557L1625.29 650.036C1627.43 645.727 1630.12 641.374 1633.74 638.545C1635.52 637.152 1637.65 636.412 1639.57 637.022C1641.4 637.631 1643.27 639.416 1645.14 640.765C1652.63 646.554 1659.81 652.126 1666.56 657.523C1669.95 660.222 1673.22 662.877 1676.31 665.532C1677.87 666.925 1679.35 668.1 1679.92 669.798C1680.66 671.582 1681.27 673.41 1681.88 675.239C1684.19 682.551 1686.1 689.472 1687.8 695.74C1691.06 708.189 1693.72 718.374 1695.63 725.6C1696.5 728.951 1697.24 731.65 1697.77 733.696C1698.25 735.611 1698.51 736.568 1698.59 736.568Z" fill="#FF9A6C"/>
<path d="M1624.77 665.924C1624.77 666.272 1628.25 666.011 1633.61 666.533C1636.3 666.751 1639.26 667.752 1642.92 668.666C1646.71 669.493 1650.84 669.058 1654.98 668.753C1663.25 667.621 1670.26 671.147 1673.96 674.934C1677.79 678.721 1678.14 682.377 1678.53 682.247C1678.7 682.334 1678.88 678.373 1675.05 673.933C1673.17 671.8 1670.39 669.667 1666.91 668.187C1663.42 666.62 1659.03 666.316 1654.85 666.664C1650.63 666.968 1646.71 667.404 1643.31 666.751C1639.92 666.011 1636.52 665.053 1633.74 665.053C1628.08 664.879 1624.73 665.706 1624.77 665.924Z" fill="#FF9A6C"/>
<path d="M1636.83 665.009C1637.35 665.271 1638.7 663.268 1638.52 660.439C1638.35 657.61 1636.74 655.782 1636.31 656.086C1635.78 656.391 1636.35 658.263 1636.44 660.526C1636.57 662.877 1636.26 664.792 1636.83 665.009Z" fill="#FF9A6C"/>
<path d="M1616.63 683.117C1616.59 683.639 1628.3 684.162 1642.31 681.115C1645.84 680.375 1649.02 679.374 1651.76 679.94C1654.5 680.418 1656.55 682.247 1657.85 683.988C1660.42 687.6 1660.85 690.647 1661.2 690.517C1661.38 690.517 1661.55 687.426 1659.07 683.161C1657.76 681.115 1655.5 678.851 1652.11 678.068C1648.71 677.328 1645.18 678.416 1641.83 679.113C1628.12 682.072 1616.63 682.508 1616.63 683.117Z" fill="#FF9A6C"/>
<path d="M1612.1 698.613C1612.1 698.874 1614.54 699.135 1618.42 698.656C1622.29 698.221 1627.51 696.872 1633.17 695.783C1636.04 695.261 1638.74 694.826 1641.14 695C1643.53 695.13 1645.53 695.914 1646.84 697.089C1649.62 699.44 1649.32 702.138 1649.62 702.095C1649.76 702.138 1650.02 701.529 1649.97 700.354C1649.89 699.222 1649.32 697.524 1647.84 696.001C1646.4 694.477 1643.97 693.346 1641.27 693.085C1638.57 692.78 1635.7 693.215 1632.78 693.738C1626.95 694.869 1621.85 696.436 1618.15 697.22C1614.45 698.003 1612.1 698.308 1612.1 698.613Z" fill="#FF9A6C"/>
<path d="M1622.25 710.887C1621.9 711.148 1624.77 714.195 1630.08 714.152L1629.04 713.238C1629.12 714.152 1629.25 715.066 1629.34 715.98C1630.12 722.03 1631.21 726.905 1631.78 726.818C1632.34 726.731 1632.21 721.769 1631.43 715.762C1631.3 714.848 1631.17 713.978 1631.04 713.02L1630.91 712.062L1629.99 712.106C1625.6 712.411 1622.51 710.452 1622.25 710.887Z" fill="#FF9A6C"/>
<path d="M1834.1 700.571C1834.1 700.571 1891.68 714.544 1891.55 790.89C1891.42 866.976 1874.14 904.975 1874.14 904.975L1767.98 847.215L1791.66 787.756L1834.1 700.571Z" fill="#324D8C"/>
<path d="M1874.19 904.975C1874.14 905.019 1873.4 904.714 1871.97 904.018C1870.36 903.191 1868.31 902.146 1865.78 900.884C1860.21 897.967 1852.55 893.919 1843.15 888.957C1823.82 878.554 1797.32 864.277 1767.45 848.172L1766.58 847.693L1766.93 846.779C1768.76 842.035 1770.68 836.986 1772.63 831.893C1779.43 814.264 1785.87 797.506 1791.79 782.185C1794.75 774.568 1797.58 767.299 1800.19 760.508C1802.71 753.674 1805.54 747.407 1808.59 741.966C1814.55 731.04 1821.65 723.292 1827.74 719.81C1830.74 717.982 1833.4 717.155 1835.18 716.807C1836.1 716.633 1836.8 716.546 1837.27 716.546C1837.75 716.502 1837.97 716.546 1837.97 716.546C1838.06 716.807 1833.97 716.763 1828.18 720.507C1822.39 724.163 1815.68 731.824 1809.94 742.706C1807.02 748.103 1804.37 754.284 1801.89 761.118C1799.32 767.951 1796.58 775.221 1793.66 782.838C1787.83 798.159 1781.43 814.961 1774.68 832.589C1772.72 837.682 1770.81 842.731 1768.98 847.476L1768.46 846.126C1798.19 862.449 1824.56 876.987 1843.8 887.564C1853.07 892.788 1860.6 897.01 1866.09 900.1C1868.53 901.537 1870.49 902.668 1872.05 903.582C1873.53 904.453 1874.23 904.932 1874.19 904.975Z" fill="#263238"/>
</g>
<defs>
<clipPath id="clip0_68_834">
<rect width="1978" height="2008" fill="white"/>
</clipPath>
</defs>
</svg>
