<svg width="262" height="247" viewBox="0 0 262 247" fill="none" xmlns="http://www.w3.org/2000/svg">
<ellipse cx="131" cy="123.5" rx="131" ry="123.5" fill="white"/>
<path d="M79 75.3156C93.3106 78.573 94.266 79.213 93.5218 93.249C92.894 105.137 97.9985 113.59 108.663 119.524C117.72 124.561 126.969 129.304 135.931 134.481C144.805 139.608 148.463 146.602 146.398 153.333C144.12 160.757 136.332 165.22 125.682 164.821C122.31 164.696 118.257 164.633 115.8 162.938C112.632 160.752 109.308 157.2 108.641 153.798C107.478 147.856 108.519 141.568 108.15 135.45C108.019 133.27 107.044 130.648 105.455 129.129C102.231 126.045 98.3246 123.574 93.6712 120.08C93.6712 131.192 93.7402 141.396 93.6526 151.6C93.5333 165.42 92.9457 166.064 79.329 168.788C79.398 169.622 79.464 170.458 79.5316 171.293C98.8432 170.386 118.165 169.626 137.455 168.436C140.695 168.236 143.972 166.469 146.936 164.934C158.751 158.82 163.6 145.516 157.021 134.58C154.08 129.692 149.138 125.356 144.087 122.15C134.089 115.806 123.259 110.602 113.017 104.57C107.009 101.032 103.337 95.849 105.857 88.9503C108.416 81.9476 114.848 79.7423 122.134 79.4103C146.204 78.3116 169.249 98.6103 170.747 121.83C171.82 138.424 165.394 152.356 152.47 165.894C155.906 164.581 157.596 164.097 159.119 163.33C177.574 154.036 186.659 133.024 182.029 110.462C177.972 90.693 162.503 76.7783 140.117 75.177C120.392 73.765 100.507 74.2703 80.6895 73.9983C80.6881 73.9983 80.6852 73.9983 80.6838 73.9983C80.1781 73.9983 79.6566 74.7836 79 75.3156Z" fill="url(#paint0_linear_1552_360)"/>
<path d="M225.6 122.98C225.6 171.57 183.156 210.961 130.8 210.961C78.4434 210.961 36 171.57 36 122.98C36 74.3889 78.4434 34.9983 130.8 34.9983C183.156 34.9983 225.6 74.3889 225.6 122.98Z" stroke="url(#paint1_linear_1552_360)" stroke-width="8" stroke-miterlimit="10"/>
<defs>
<linearGradient id="paint0_linear_1552_360" x1="79.0009" y1="122.645" x2="183.223" y2="122.645" gradientUnits="userSpaceOnUse">
<stop stop-color="#BE3749"/>
<stop offset="0.550279" stop-color="#2C727B"/>
<stop offset="1" stop-color="#262B63"/>
</linearGradient>
<linearGradient id="paint1_linear_1552_360" x1="31.6894" y1="-277.02" x2="229.909" y2="-277.02" gradientUnits="userSpaceOnUse">
<stop stop-color="#B2354B"/>
<stop offset="0.197207" stop-color="#B2354B"/>
<stop offset="0.48771" stop-color="#2B717B"/>
<stop offset="0.999999" stop-color="#283666"/>
<stop offset="1" stop-color="#283666"/>
</linearGradient>
</defs>
</svg>
