<svg width="137" height="164" viewBox="0 0 137 164" fill="none" xmlns="http://www.w3.org/2000/svg">
<path d="M98.1601 89.792C97.4994 89.568 81.9316 84.2074 81.9316 69.3977V68.2695H55.672V69.3977C55.672 84.2554 39.611 89.736 39.4435 89.792L37.9453 90.2881L66.7546 129.221H70.821L99.6396 90.2881L98.1415 89.792H98.1601Z" fill="url(#paint0_radial_1581_333)"/>
<path d="M126.486 100.422C121.368 96.0693 110.006 88.7644 91.1904 84.668C91.1904 84.668 83.7834 100.71 68.839 100.71C52.7966 100.71 46.4132 84.668 46.4132 84.668C27.5978 88.7644 16.2453 96.0693 11.1274 100.422C1.98953 108.199 5.0789 128.041 5.15334 139.97C5.15334 139.97 26.4812 151.58 68.169 151.58C114.919 151.58 132.45 139.97 132.45 139.97C132.534 128.049 135.614 108.199 126.476 100.43L126.486 100.422Z" fill="url(#paint1_radial_1581_333)"/>
<path d="M126.486 99.5233C121.368 95.1708 110.006 87.866 91.1904 83.7695C91.1904 83.7695 83.7834 99.8114 68.839 99.8114C52.7966 99.8114 46.4132 83.7695 46.4132 83.7695C27.5978 87.866 16.2453 95.1708 11.1274 99.5233C1.98953 107.3 5.0789 127.143 5.15334 139.072C5.15334 139.072 26.4812 150.681 68.169 150.681C114.919 150.681 132.45 139.072 132.45 139.072C132.534 127.151 135.614 107.308 126.476 99.5313L126.486 99.5233Z" fill="url(#paint2_radial_1581_333)"/>
<path d="M31.3016 38.6751C32.5206 15.4165 40.5231 6.19141 69.351 6.19141C95.2664 6.19141 105.251 15.4005 106.135 38.6751C107.261 68.4545 85.8401 30.3462 68.7183 30.3462C51.5965 30.3462 29.9151 65.1662 31.3016 38.6751Z" fill="url(#paint3_radial_1581_333)"/>
<path d="M101.855 47.602L101.231 47.37L101.259 46.7859C101.278 46.4259 101.278 46.0658 101.287 45.7058C102.032 25.3195 86.1102 12.0859 68.8209 12.0859C51.5316 12.0859 36.3453 27.7917 36.3453 45.7058C36.3453 46.0258 36.3546 46.3459 36.3732 46.6659L36.4012 47.25L35.7777 47.602C34.1772 48.2021 33.0605 50.2023 33.0605 52.4746C33.0605 55.2189 34.7076 57.5392 36.6524 57.5392C36.8757 57.5392 37.1084 57.4991 37.3875 57.4111L38.3739 57.0991L38.6996 57.9552C43.9013 71.9008 56.0168 81.2699 68.8395 81.2699C81.6623 81.2699 90.2511 74.7091 99.0074 57.8752L99.3889 57.1471L100.264 57.4191C100.543 57.5072 100.775 57.5472 100.989 57.5472C102.934 57.5472 104.581 55.2269 104.581 52.4826C104.581 50.2183 103.465 48.2181 101.873 47.618L101.855 47.602Z" fill="url(#paint4_radial_1581_333)"/>
<path d="M101.797 16.2251C101.742 16.1451 101.676 16.0811 101.621 16.0091C100.327 13.9848 98.038 11.9926 94.3531 10.2644C90.2773 7.98416 84.1637 4.67978 84.1637 4.67978C84.1637 4.67978 84.3778 5.62389 84.7593 6.96805C72.2901 2.96759 68.5308 0.03125 68.5308 0.03125C68.5308 0.03125 68.6052 1.66344 69.0333 4.11172C67.2932 3.9517 65.4414 3.86369 63.4408 3.86369C44.2253 3.86369 35.4317 13.1688 31.6072 8.24019C31.6072 8.24019 29.9416 11.4006 35.7481 15.665C27.7455 15.145 25.1121 10.9205 25.1121 10.9205C25.1121 10.9205 22.6555 15.009 27.6339 20.1616C24.7678 20.6736 23.5488 20.6016 23.5488 20.6016C23.5488 20.6016 27.1686 24.186 31.8399 25.7782C28.7319 31.1388 28.5644 37.6276 28.5644 37.6276C28.5644 37.6276 31.6817 35.0993 42.5317 31.7069C44.2811 31.1628 45.7327 30.5467 46.9424 29.8907C61.254 33.6911 71.4154 29.7067 77.3988 25.7142C74.4862 32.0669 68.4843 34.8192 68.4843 34.8192C68.4843 34.8192 74.449 37.6676 89.1514 32.779C87.7184 34.5072 86.062 35.3313 86.062 35.3313C86.062 35.3313 97.0795 35.0753 99.7502 27.3704C100.56 26.7623 101.341 25.8662 101.946 24.7781C106.329 27.5064 106.655 29.9547 106.655 29.9547C106.655 29.9547 107.716 24.114 101.797 16.2251Z" fill="url(#paint5_radial_1581_333)"/>
<path d="M31.1063 33.1302C31.5064 30.97 32.2694 28.1697 33.7211 25.6654L34.7447 23.9052L32.6137 23.1771C30.9946 22.625 29.4965 21.7849 28.2681 20.9768L31.4785 20.4008L29.2452 18.0885C27.7564 16.5523 27.0585 15.1522 26.7793 14.008C28.7241 15.1762 31.5808 16.2883 35.5914 16.5523L42.0028 16.9684L37.1175 13.376C35.6659 12.3038 34.7819 11.3517 34.2515 10.5596C34.4004 10.5677 34.5586 10.5757 34.7167 10.5757C36.8663 10.5757 39.295 9.75956 42.3657 8.72744C47.3348 7.05525 54.137 4.75898 63.4423 4.75898C65.2475 4.75898 67.0621 4.83899 68.8115 4.99901L71.51 5.24704C71.51 5.24704 71.082 2.79076 71.0727 2.71875C73.6968 4.0069 77.8283 5.7591 84.0164 7.74333L87.7292 8.93546L87.3663 7.64732C89.2553 8.67943 91.4327 9.87157 93.21 10.8637L93.3496 10.9357C96.4018 12.3679 98.5699 14.056 99.7796 15.9603L99.8261 16.0323L100.003 16.2563C101.808 18.6566 102.916 20.8248 103.595 22.665C103.455 22.577 103.316 22.489 103.176 22.401L101.12 21.1289L100.04 23.0971C99.5842 23.9212 98.998 24.6333 98.3745 25.0973L97.9185 25.4414L97.7417 25.9454C96.7926 28.6737 94.5407 30.2819 92.2516 31.242L94.9129 28.0257L88.3992 30.1859C83.0021 31.9781 78.061 32.9302 74.0969 32.9302C73.8736 32.9302 73.6595 32.9302 73.4548 32.9222C75.4648 31.29 77.8004 28.8417 79.3451 25.4734L82.1553 19.3447L76.1068 23.3851C70.8121 26.9215 64.7637 28.7137 58.1476 28.7137C54.7511 28.7137 51.1872 28.2257 47.5581 27.2656L46.6369 27.0175L45.818 27.4576C44.6827 28.0737 43.3335 28.6257 41.8074 29.0978C36.8011 30.658 33.3768 32.0501 31.097 33.1302H31.1063Z" fill="url(#paint6_radial_1581_333)"/>
<path style="mix-blend-mode:screen" d="M95.3959 16.2708C92.9858 14.6866 86.407 13.8385 84.3598 19.4231C81.6333 26.872 76.5898 30.4724 76.5898 30.4724C76.5898 30.4724 80.3771 32.1046 91.0969 28.3762C103.65 24.0077 98.3922 18.239 95.3959 16.2708Z" fill="url(#paint7_linear_1581_333)"/>
<g style="mix-blend-mode:screen">
<path d="M54.9934 12.8141C52.6671 11.1339 46.3394 10.7178 39.8536 16.8225C34.0657 22.2632 33.8145 32.2083 33.8145 32.2083C33.8145 32.2083 36.9317 29.68 47.7818 26.2876C60.4835 22.3272 57.8966 14.9023 54.9934 12.8061V12.8141Z" fill="url(#paint8_linear_1581_333)"/>
</g>
<path style="mix-blend-mode:screen" d="M129.546 105.462C128.615 102.893 127.284 100.685 125.377 99.0448C121.134 95.3964 110.712 88.6036 92.2963 84.3711L91.1797 91.3079H94.3063C113.41 95.3484 124.595 101.709 129.546 105.454V105.462Z" fill="url(#paint9_linear_1581_333)"/>
<path style="mix-blend-mode:screen" d="M47.3614 91.1481L45.398 84.1953C26.9455 88.4278 16.4491 95.3886 12.2059 99.037C10.2983 100.677 8.96764 102.885 8.03711 105.454C12.9969 101.693 24.2563 95.1726 43.3974 91.1401H47.3614V91.1481Z" fill="url(#paint10_linear_1581_333)"/>
<path opacity="0.4" d="M37.3125 15.7128C37.3125 15.7128 54.1179 8.2559 69.6764 7.25578C69.6764 7.25578 50.2748 2.63925 37.3125 15.7128Z" fill="url(#paint11_linear_1581_333)"/>
<path opacity="0.7" d="M31.9797 37.445C31.9797 37.445 32.3426 28.0039 38.6889 21.2031C38.6889 21.2031 24.7867 27.7639 31.9797 37.445Z" fill="url(#paint12_linear_1581_333)"/>
<path opacity="0.7" d="M90.3633 12.235C90.3633 12.235 99.9571 16.8355 104.089 24.8044C104.089 24.8044 103.679 11.1709 90.3633 12.235Z" fill="url(#paint13_linear_1581_333)"/>
<path opacity="0.4" d="M82.5828 19.1133C82.5828 19.1133 68.9691 27.1222 54.8809 28.3063C54.8809 28.3063 73.9475 33.0189 82.5828 19.1133Z" fill="url(#paint14_linear_1581_333)"/>
<path d="M88.2968 83.8164C88.2223 84.2645 86.2496 96.5539 68.8207 96.5539C50.4241 96.5539 49.4098 84.4805 49.3726 84.0404L43.3613 85.1846C43.3613 85.3446 44.5431 101.738 68.8207 101.738C91.4047 101.738 94.2336 85.5846 94.2522 85.4246L88.2968 83.8244V83.8164Z" fill="#312C6E"/>
<path d="M88.2968 82.9141C88.2223 83.3621 86.2496 95.6515 68.8207 95.6515C50.4241 95.6515 49.4098 83.5781 49.3726 83.1381L43.3613 84.2822C43.3613 84.4422 44.5431 100.836 68.8207 100.836C91.4047 100.836 94.2336 84.6823 94.2522 84.5222L88.2968 82.9221V82.9141Z" fill="url(#paint15_radial_1581_333)"/>
<g style="mix-blend-mode:multiply">
<path d="M136.991 155.321C136.991 151.081 106.46 147.641 68.8012 147.641C31.1426 147.641 0.621094 151.081 0.621094 155.321C0.621094 159.562 31.1519 163.002 68.8105 163.002C106.469 163.002 137 159.562 137 155.321H136.991Z" fill="white"/>
<path d="M136.479 155.32C136.479 151.119 106.181 147.711 68.8105 147.711C31.4403 147.711 1.13281 151.119 1.13281 155.32C1.13281 159.52 31.431 162.929 68.8012 162.929C106.171 162.929 136.47 159.52 136.47 155.32H136.479Z" fill="#FEFEFE"/>
<path d="M135.967 155.318C135.967 151.158 105.901 147.781 68.8104 147.781C31.7194 147.781 1.64453 151.158 1.64453 155.318C1.64453 159.479 31.71 162.855 68.8011 162.855C105.892 162.855 135.958 159.479 135.958 155.318H135.967Z" fill="#FDFDFD"/>
<path d="M135.456 155.324C135.456 151.204 105.623 147.859 68.8108 147.859C31.9989 147.859 2.16602 151.204 2.16602 155.324C2.16602 159.445 31.9989 162.789 68.8108 162.789C105.623 162.789 135.456 159.445 135.456 155.324Z" fill="#FCFCFC"/>
<path d="M134.934 155.323C134.934 151.242 105.325 147.93 68.8014 147.93C32.278 147.93 2.67773 151.242 2.67773 155.323C2.67773 159.403 32.2873 162.715 68.8107 162.715C105.334 162.715 134.944 159.411 134.944 155.323H134.934Z" fill="#FBFBFB"/>
<path d="M134.423 155.321C134.423 151.28 105.046 148.008 68.8013 148.008C32.5571 148.008 3.18945 151.28 3.18945 155.321C3.18945 159.361 32.5664 162.633 68.8106 162.633C105.055 162.633 134.432 159.361 134.432 155.321H134.423Z" fill="#FAFAFA"/>
<path d="M68.8106 162.564C104.769 162.564 133.92 159.322 133.92 155.323C133.92 151.324 104.769 148.082 68.8106 148.082C32.8516 148.082 3.70117 151.324 3.70117 155.323C3.70117 159.322 32.8516 162.564 68.8106 162.564Z" fill="#F9F9F9"/>
<path d="M133.399 155.321C133.399 151.361 104.478 148.152 68.8105 148.152C33.1432 148.152 4.21289 151.361 4.21289 155.321C4.21289 159.282 33.1339 162.49 68.8012 162.49C104.469 162.49 133.389 159.282 133.389 155.321H133.399Z" fill="#F8F8F8"/>
<path d="M68.8109 162.42C104.199 162.42 132.887 159.243 132.887 155.323C132.887 151.404 104.199 148.227 68.8109 148.227C33.4224 148.227 4.73438 151.404 4.73438 155.323C4.73438 159.243 33.4224 162.42 68.8109 162.42Z" fill="#F7F7F7"/>
<path d="M132.376 155.322C132.376 151.441 103.92 148.297 68.8108 148.297C33.7018 148.297 5.24609 151.441 5.24609 155.322C5.24609 159.202 33.7018 162.346 68.8108 162.346C103.92 162.346 132.376 159.202 132.376 155.322Z" fill="#F6F6F6"/>
<path d="M131.854 155.32C131.854 151.48 103.621 148.367 68.801 148.367C33.9804 148.367 5.74805 151.48 5.74805 155.32C5.74805 159.16 33.9804 162.273 68.801 162.273C103.621 162.273 131.854 159.16 131.854 155.32Z" fill="#F5F5F5"/>
<path d="M131.342 155.322C131.342 151.522 103.342 148.441 68.8009 148.441C34.2595 148.441 6.25977 151.522 6.25977 155.322C6.25977 159.123 34.2595 162.203 68.8009 162.203C103.342 162.203 131.342 159.123 131.342 155.322Z" fill="#F4F4F4"/>
<path d="M68.811 162.121C103.064 162.121 130.831 159.076 130.831 155.32C130.831 151.564 103.064 148.52 68.811 148.52C34.5583 148.52 6.79102 151.564 6.79102 155.32C6.79102 159.076 34.5583 162.121 68.811 162.121Z" fill="#F3F3F3"/>
<path d="M130.319 155.326C130.319 151.606 102.785 148.598 68.811 148.598C34.8372 148.598 7.30273 151.614 7.30273 155.326C7.30273 159.039 34.8372 162.055 68.811 162.055C102.785 162.055 130.319 159.039 130.319 155.326Z" fill="#F2F2F2"/>
<path d="M129.807 155.325C129.807 151.644 102.496 148.668 68.8109 148.668C35.1256 148.668 7.81445 151.652 7.81445 155.325C7.81445 158.997 35.1256 161.981 68.8109 161.981C102.496 161.981 129.807 158.997 129.807 155.325Z" fill="#F1F1F1"/>
<path d="M129.295 155.323C129.295 151.683 102.217 148.738 68.8108 148.738C35.4047 148.738 8.32617 151.683 8.32617 155.323C8.32617 158.963 35.4047 161.908 68.8108 161.908C102.217 161.908 129.295 158.963 129.295 155.323Z" fill="#F0F0F0"/>
<path d="M128.774 155.321C128.774 151.721 101.928 148.809 68.801 148.809C35.674 148.809 8.82812 151.721 8.82812 155.321C8.82812 158.922 35.674 161.834 68.801 161.834C101.928 161.834 128.774 158.922 128.774 155.321Z" fill="#EFEFEF"/>
<path d="M128.262 155.32C128.262 151.767 101.64 148.879 68.8107 148.879C35.9815 148.879 9.34961 151.759 9.34961 155.32C9.34961 158.88 35.9722 161.76 68.8107 161.76C101.649 161.76 128.262 158.88 128.262 155.32Z" fill="#EEEEEE"/>
<path d="M127.749 155.322C127.749 151.809 101.359 148.953 68.8091 148.953C36.2591 148.953 9.86914 151.801 9.86914 155.322C9.86914 158.842 36.2591 161.691 68.8091 161.691C101.359 161.691 127.749 158.842 127.749 155.322Z" fill="#EDEDED"/>
<path d="M127.239 155.324C127.239 151.852 101.082 149.027 68.811 149.027C36.5401 149.027 10.3828 151.844 10.3828 155.324C10.3828 158.804 36.5401 161.621 68.811 161.621C101.082 161.621 127.239 158.804 127.239 155.324Z" fill="#ECECEC"/>
<path d="M126.725 155.322C126.725 151.89 100.801 149.105 68.8089 149.105C36.8172 149.105 10.8926 151.89 10.8926 155.322C10.8926 158.755 36.8172 161.547 68.8089 161.547C100.801 161.547 126.725 158.763 126.725 155.322Z" fill="#EBEBEB"/>
<path d="M126.206 155.324C126.206 151.932 100.504 149.18 68.8011 149.18C37.0978 149.18 11.3965 151.932 11.3965 155.324C11.3965 158.717 37.0978 161.469 68.8011 161.469C100.504 161.469 126.206 158.717 126.206 155.324Z" fill="#EAEAEA"/>
<path d="M125.696 155.323C125.696 151.97 100.227 149.25 68.8029 149.25C37.3788 149.25 11.9102 151.97 11.9102 155.323C11.9102 158.675 37.3788 161.395 68.8029 161.395C100.227 161.395 125.696 158.675 125.696 155.323Z" fill="#E9E9E9"/>
<path d="M68.8092 161.326C99.9424 161.326 125.181 158.639 125.181 155.325C125.181 152.011 99.9424 149.324 68.8092 149.324C37.676 149.324 12.4375 152.011 12.4375 155.325C12.4375 158.639 37.676 161.326 68.8092 161.326Z" fill="#E8E8E8"/>
<path d="M124.671 155.323C124.671 152.051 99.6582 149.395 68.8111 149.395C37.9639 149.395 12.9512 152.051 12.9512 155.323C12.9512 158.596 37.9639 161.252 68.8111 161.252C99.6582 161.252 124.671 158.596 124.671 155.323Z" fill="#E7E7E7"/>
<path d="M124.159 155.322C124.159 152.089 99.379 149.465 68.811 149.465C38.243 149.465 13.4629 152.089 13.4629 155.322C13.4629 158.554 38.243 161.178 68.811 161.178C99.379 161.178 124.159 158.554 124.159 155.322Z" fill="#E6E6E6"/>
<path d="M123.637 155.324C123.637 152.131 99.09 149.539 68.8011 149.539C38.5123 149.539 13.9648 152.131 13.9648 155.324C13.9648 158.516 38.5123 161.108 68.8011 161.108C99.09 161.108 123.637 158.516 123.637 155.324Z" fill="#E5E5E5"/>
<path d="M123.126 155.322C123.126 152.17 98.8015 149.609 68.8011 149.609C38.8007 149.609 14.4766 152.17 14.4766 155.322C14.4766 158.474 38.8007 161.035 68.8011 161.035C98.8015 161.035 123.126 158.482 123.126 155.322Z" fill="#E4E4E4"/>
<path d="M122.614 155.32C122.614 152.208 98.5222 149.688 68.801 149.688C39.0798 149.688 14.9883 152.216 14.9883 155.32C14.9883 158.424 39.0798 160.953 68.801 160.953C98.5222 160.953 122.614 158.432 122.614 155.32Z" fill="#E3E3E3"/>
<path d="M122.103 155.322C122.103 152.25 98.2439 149.762 68.8111 149.762C39.3784 149.762 15.5195 152.25 15.5195 155.322C15.5195 158.395 39.3784 160.883 68.8111 160.883C98.2439 160.883 122.103 158.395 122.103 155.322Z" fill="#E2E2E2"/>
<path d="M121.591 155.321C121.591 152.288 97.9647 149.832 68.8111 149.832C39.6575 149.832 16.0312 152.288 16.0312 155.321C16.0312 158.353 39.6575 160.809 68.8111 160.809C97.9647 160.809 121.591 158.353 121.591 155.321Z" fill="#E1E1E1"/>
<path d="M121.077 155.319C121.077 152.327 97.6742 149.902 68.809 149.902C39.9439 149.902 16.541 152.327 16.541 155.319C16.541 158.311 39.9439 160.736 68.809 160.736C97.6742 160.736 121.077 158.311 121.077 155.319Z" fill="#E0E0E0"/>
<path d="M120.557 155.321C120.557 152.369 97.3871 149.977 68.8012 149.977C40.2152 149.977 17.0449 152.369 17.0449 155.321C17.0449 158.274 40.2152 160.666 68.8012 160.666C97.3871 160.666 120.557 158.274 120.557 155.321Z" fill="#DFDFDF"/>
<path d="M120.046 155.323C120.046 152.411 97.1079 150.051 68.8011 150.051C40.4943 150.051 17.5566 152.411 17.5566 155.323C17.5566 158.236 40.4943 160.596 68.8011 160.596C97.1079 160.596 120.046 158.236 120.046 155.323Z" fill="#DEDEDE"/>
<path d="M119.534 155.326C119.534 152.453 96.8194 150.125 68.801 150.125C40.7827 150.125 18.0684 152.453 18.0684 155.326C18.0684 158.198 40.7827 160.526 68.801 160.526C96.8194 160.526 119.534 158.198 119.534 155.326Z" fill="#DDDDDD"/>
<path d="M119.023 155.324C119.023 152.492 96.541 150.195 68.8112 150.195C41.0813 150.195 18.5996 152.492 18.5996 155.324C18.5996 158.156 41.0813 160.452 68.8112 160.452C96.541 160.452 119.023 158.156 119.023 155.324Z" fill="#DCDCDC"/>
<path d="M118.509 155.322C118.509 152.53 96.2599 150.273 68.8091 150.273C41.3584 150.273 19.1094 152.538 19.1094 155.322C19.1094 158.106 41.3584 160.379 68.8091 160.379C96.2599 160.379 118.509 158.114 118.509 155.322Z" fill="#DBDBDB"/>
<path d="M117.999 155.32C117.999 152.568 95.9826 150.344 68.811 150.344C41.6395 150.344 19.623 152.576 19.623 155.32C19.623 158.065 41.6488 160.297 68.811 160.297C95.9733 160.297 117.999 158.065 117.999 155.32Z" fill="#DADADA"/>
<path d="M117.477 155.319C117.477 152.606 95.6843 150.414 68.8012 150.414C41.9181 150.414 20.125 152.614 20.125 155.319C20.125 158.023 41.9181 160.223 68.8012 160.223C95.6843 160.223 117.477 158.023 117.477 155.319Z" fill="#D9D9D9"/>
<path d="M116.965 155.321C116.965 152.649 95.405 150.488 68.8011 150.488C42.1972 150.488 20.6367 152.649 20.6367 155.321C20.6367 157.993 42.1972 160.153 68.8011 160.153C95.405 160.153 116.965 157.993 116.965 155.321Z" fill="#D8D8D8"/>
<path d="M116.454 155.319C116.454 152.687 95.1263 150.559 68.8108 150.559C42.4953 150.559 21.1582 152.687 21.1582 155.319C21.1582 157.951 42.486 160.08 68.8108 160.08C95.1356 160.08 116.454 157.951 116.454 155.319Z" fill="#D7D7D7"/>
<path d="M68.8112 160.01C94.8412 160.01 115.943 157.911 115.943 155.321C115.943 152.732 94.8412 150.633 68.8112 150.633C42.7812 150.633 21.6797 152.732 21.6797 155.321C21.6797 157.911 42.7812 160.01 68.8112 160.01Z" fill="#D6D6D6"/>
<path d="M115.431 155.32C115.431 152.775 94.559 150.703 68.8111 150.703C43.0633 150.703 22.1914 152.767 22.1914 155.32C22.1914 157.872 43.0633 159.936 68.8111 159.936C94.559 159.936 115.431 157.872 115.431 155.32Z" fill="#D6D6D6"/>
<path d="M114.919 155.318C114.919 152.813 94.2797 150.781 68.811 150.781C43.3423 150.781 22.7031 152.813 22.7031 155.318C22.7031 157.822 43.3423 159.862 68.811 159.862C94.2797 159.862 114.919 157.83 114.919 155.318Z" fill="#D5D5D5"/>
<path d="M114.397 155.324C114.397 152.86 93.9814 150.859 68.8012 150.859C43.621 150.859 23.2051 152.86 23.2051 155.324C23.2051 157.788 43.621 159.788 68.8012 159.788C93.9814 159.788 114.397 157.788 114.397 155.324Z" fill="#D4D4D4"/>
<path d="M113.885 155.322C113.885 152.898 93.7022 150.93 68.8011 150.93C43.9001 150.93 23.7168 152.898 23.7168 155.322C23.7168 157.746 43.9001 159.715 68.8011 159.715C93.7022 159.715 113.885 157.746 113.885 155.322Z" fill="#D3D3D3"/>
<path d="M113.374 155.32C113.374 152.936 93.4239 151 68.8113 151C44.1987 151 24.248 152.936 24.248 155.32C24.248 157.705 44.1987 159.641 68.8113 159.641C93.4239 159.641 113.374 157.705 113.374 155.32Z" fill="#D2D2D2"/>
<path d="M112.861 155.319C112.861 152.975 93.1334 151.07 68.8092 151.07C44.4851 151.07 24.7578 152.975 24.7578 155.319C24.7578 157.663 44.4851 159.567 68.8092 159.567C93.1334 159.567 112.861 157.663 112.861 155.319Z" fill="#D1D1D1"/>
<path d="M112.351 155.321C112.351 153.017 92.8561 151.145 68.8111 151.145C44.7662 151.145 25.2715 153.017 25.2715 155.321C25.2715 157.625 44.7662 159.497 68.8111 159.497C92.8561 159.497 112.351 157.625 112.351 155.321Z" fill="#D0D0D0"/>
<path d="M111.829 155.323C111.829 153.059 92.5671 151.219 68.8013 151.219C45.0355 151.219 25.7734 153.059 25.7734 155.323C25.7734 157.587 45.0355 159.428 68.8013 159.428C92.5671 159.428 111.829 157.587 111.829 155.323Z" fill="#CFCFCF"/>
<path d="M111.317 155.322C111.317 153.097 92.2879 151.289 68.8012 151.289C45.3146 151.289 26.2852 153.089 26.2852 155.322C26.2852 157.554 45.3146 159.354 68.8012 159.354C92.2879 159.354 111.317 157.554 111.317 155.322Z" fill="#CECECE"/>
<path d="M110.806 155.32C110.806 153.136 91.9998 151.359 68.8109 151.359C45.622 151.359 26.8066 153.128 26.8066 155.32C26.8066 157.512 45.6127 159.28 68.8109 159.28C92.0091 159.28 110.806 157.512 110.806 155.32Z" fill="#CDCDCD"/>
<path d="M110.292 155.322C110.292 153.178 91.7191 151.441 68.8093 151.441C45.8996 151.441 27.3262 153.178 27.3262 155.322C27.3262 157.466 45.8996 159.202 68.8093 159.202C91.7191 159.202 110.292 157.466 110.292 155.322Z" fill="#CCCCCC"/>
<path d="M109.783 155.32C109.783 153.216 91.4418 151.512 68.8112 151.512C46.1806 151.512 27.8398 153.216 27.8398 155.32C27.8398 157.424 46.1806 159.129 68.8112 159.129C91.4418 159.129 109.783 157.424 109.783 155.32Z" fill="#CBCBCB"/>
<path d="M109.271 155.322C109.271 153.258 91.1532 151.586 68.8111 151.586C46.469 151.586 28.3516 153.258 28.3516 155.322C28.3516 157.387 46.469 159.059 68.8111 159.059C91.1532 159.059 109.271 157.387 109.271 155.322Z" fill="#CACACA"/>
<path d="M108.749 155.321C108.749 153.296 90.8642 151.656 68.8013 151.656C46.7384 151.656 28.8535 153.296 28.8535 155.321C28.8535 157.345 46.7384 158.985 68.8013 158.985C90.8642 158.985 108.749 157.345 108.749 155.321Z" fill="#C9C9C9"/>
<path d="M108.237 155.319C108.237 153.335 90.585 151.727 68.8012 151.727C47.0174 151.727 29.3652 153.335 29.3652 155.319C29.3652 157.303 47.0174 158.911 68.8012 158.911C90.585 158.911 108.237 157.303 108.237 155.319Z" fill="#C8C8C8"/>
<path d="M107.724 155.321C107.724 153.377 90.3043 151.801 68.809 151.801C47.3136 151.801 29.8848 153.377 29.8848 155.321C29.8848 157.265 47.3136 158.842 68.809 158.842C90.3043 158.842 107.724 157.265 107.724 155.321Z" fill="#C7C7C7"/>
<path d="M107.214 155.319C107.214 153.415 90.0181 151.871 68.8113 151.871C47.6045 151.871 30.4082 153.415 30.4082 155.319C30.4082 157.224 47.6045 158.768 68.8113 158.768C90.0181 158.768 107.214 157.224 107.214 155.319Z" fill="#C6C6C6"/>
<path d="M106.703 155.325C106.703 153.461 89.7389 151.957 68.8112 151.957C47.8835 151.957 30.9199 153.469 30.9199 155.325C30.9199 157.182 47.8835 158.702 68.8112 158.702C89.7389 158.702 106.703 157.19 106.703 155.325Z" fill="#C5C5C5"/>
<path d="M106.189 155.324C106.189 153.5 89.4577 152.027 68.8092 152.027C48.1607 152.027 31.4297 153.508 31.4297 155.324C31.4297 157.14 48.1607 158.62 68.8092 158.62C89.4577 158.62 106.189 157.14 106.189 155.324Z" fill="#C4C4C4"/>
<path d="M105.669 155.322C105.669 153.538 89.1614 152.098 68.8013 152.098C48.4412 152.098 31.9336 153.546 31.9336 155.322C31.9336 157.098 48.4412 158.546 68.8013 158.546C89.1614 158.546 105.669 157.098 105.669 155.322Z" fill="#C3C3C3"/>
<path d="M105.157 155.32C105.157 153.576 88.8821 152.168 68.8012 152.168C48.7203 152.168 32.4453 153.576 32.4453 155.32C32.4453 157.065 48.7203 158.473 68.8012 158.473C88.8821 158.473 105.157 157.057 105.157 155.32Z" fill="#C2C2C2"/>
<path d="M104.644 155.319C104.644 153.614 88.6019 152.238 68.8094 152.238C49.017 152.238 32.9746 153.614 32.9746 155.319C32.9746 157.023 49.017 158.399 68.8094 158.399C88.6019 158.399 104.644 157.023 104.644 155.319Z" fill="#C1C1C1"/>
<path d="M104.134 155.325C104.134 153.661 88.3153 152.316 68.8113 152.316C49.3073 152.316 33.4883 153.661 33.4883 155.325C33.4883 156.989 49.3073 158.333 68.8113 158.333C88.3153 158.333 104.134 156.989 104.134 155.325Z" fill="#C0C0C0"/>
<path d="M103.621 155.323C103.621 153.699 88.0341 152.387 68.8093 152.387C49.5845 152.387 33.998 153.699 33.998 155.323C33.998 156.947 49.5845 158.259 68.8093 158.259C88.0341 158.259 103.621 156.947 103.621 155.323Z" fill="#BFBFBF"/>
<path d="M103.101 155.321C103.101 153.745 87.747 152.457 68.8014 152.457C49.8557 152.457 34.502 153.737 34.502 155.321C34.502 156.906 49.8557 158.186 68.8014 158.186C87.747 158.186 103.101 156.906 103.101 155.321Z" fill="#BEBEBE"/>
<path d="M102.589 155.323C102.589 153.787 87.4678 152.539 68.8013 152.539C50.1348 152.539 35.0137 153.787 35.0137 155.323C35.0137 156.86 50.1348 158.116 68.8013 158.116C87.4678 158.116 102.589 156.868 102.589 155.323Z" fill="#BDBDBD"/>
<path d="M102.078 155.322C102.078 153.826 87.1797 152.609 68.811 152.609C50.4423 152.609 35.5352 153.826 35.5352 155.322C35.5352 156.818 50.433 158.034 68.811 158.034C87.189 158.034 102.078 156.818 102.078 155.322Z" fill="#BCBCBC"/>
<path d="M101.566 155.324C101.566 153.868 86.901 152.684 68.8114 152.684C50.7218 152.684 36.0566 153.868 36.0566 155.324C36.0566 156.78 50.7218 157.964 68.8114 157.964C86.901 157.964 101.566 156.78 101.566 155.324Z" fill="#BBBBBB"/>
<path d="M101.054 155.322C101.054 153.906 86.6217 152.754 68.8113 152.754C51.0009 152.754 36.5684 153.906 36.5684 155.322C36.5684 156.738 51.0009 157.89 68.8113 157.89C86.6217 157.89 101.054 156.738 101.054 155.322Z" fill="#BABABA"/>
<path d="M100.54 155.321C100.54 153.944 86.3312 152.824 68.8093 152.824C51.2874 152.824 37.0781 153.944 37.0781 155.321C37.0781 156.697 51.2874 157.817 68.8093 157.817C86.3312 157.817 100.54 156.697 100.54 155.321Z" fill="#B9B9B9"/>
<path d="M100.021 155.323C100.021 153.987 86.0442 152.898 68.8014 152.898C51.5586 152.898 37.582 153.987 37.582 155.323C37.582 156.659 51.5586 157.747 68.8014 157.747C86.0442 157.747 100.021 156.659 100.021 155.323Z" fill="#B8B8B8"/>
<path d="M99.5089 155.321C99.5089 154.025 85.7649 152.969 68.8013 152.969C51.8377 152.969 38.0938 154.025 38.0938 155.321C38.0938 156.617 51.8377 157.673 68.8013 157.673C85.7649 157.673 99.5089 156.617 99.5089 155.321Z" fill="#B7B7B7"/>
<path d="M98.996 155.323C98.996 154.067 85.4754 153.043 68.8095 153.043C52.1437 153.043 38.623 154.059 38.623 155.323C38.623 156.587 52.1344 157.603 68.8095 157.603C85.4847 157.603 98.996 156.587 98.996 155.323Z" fill="#B6B6B6"/>
<path d="M98.4861 155.325C98.4861 154.109 85.1981 153.125 68.8114 153.125C52.4247 153.125 39.1367 154.109 39.1367 155.325C39.1367 156.541 52.4247 157.534 68.8114 157.534C85.1981 157.534 98.4861 156.549 98.4861 155.325Z" fill="#B5B5B5"/>
<path d="M97.9723 155.324C97.9723 154.147 84.9169 153.195 68.8094 153.195C52.7019 153.195 39.6465 154.147 39.6465 155.324C39.6465 156.5 52.7019 157.452 68.8094 157.452C84.9169 157.452 97.9723 156.5 97.9723 155.324Z" fill="#B4B4B4"/>
<path d="M97.4526 155.322C97.4526 154.186 84.6299 153.266 68.8015 153.266C52.9731 153.266 40.1504 154.186 40.1504 155.322C40.1504 156.458 52.9731 157.378 68.8015 157.378C84.6299 157.378 97.4526 156.458 97.4526 155.322Z" fill="#B3B3B3"/>
<path d="M96.9407 155.32C96.9407 154.224 84.3413 153.336 68.8014 153.336C53.2615 153.336 40.6621 154.224 40.6621 155.32C40.6621 156.416 53.2615 157.304 68.8014 157.304C84.3413 157.304 96.9407 156.416 96.9407 155.32Z" fill="#B2B2B2"/>
<path d="M96.4289 155.322C96.4289 154.266 84.0621 153.41 68.8013 153.41C53.5406 153.41 41.1738 154.266 41.1738 155.322C41.1738 156.378 53.5406 157.235 68.8013 157.235C84.0621 157.235 96.4289 156.378 96.4289 155.322Z" fill="#B1B1B1"/>
<path d="M95.9179 155.325C95.9179 154.308 83.7838 153.484 68.8115 153.484C53.8392 153.484 41.7051 154.308 41.7051 155.325C41.7051 156.341 53.8392 157.165 68.8115 157.165C83.7838 157.165 95.9179 156.341 95.9179 155.325Z" fill="#B0B0B0"/>
<path d="M95.4041 155.323C95.4041 154.347 83.4933 153.555 68.8095 153.555C54.1257 153.555 42.2148 154.347 42.2148 155.323C42.2148 156.299 54.1257 157.091 68.8095 157.091C83.4933 157.091 95.4041 156.299 95.4041 155.323Z" fill="#AFAFAF"/>
<path d="M94.8942 155.321C94.8942 154.385 83.216 153.625 68.8114 153.625C54.4067 153.625 42.7285 154.385 42.7285 155.321C42.7285 156.257 54.4067 157.017 68.8114 157.017C83.216 157.017 94.8942 156.257 94.8942 155.321Z" fill="#AEAEAE"/>
<path d="M94.3706 155.319C94.3706 154.423 82.925 153.703 68.7996 153.703C54.6741 153.703 43.2285 154.431 43.2285 155.319C43.2285 156.207 54.6741 156.943 68.7996 156.943C82.925 156.943 94.3706 156.215 94.3706 155.319Z" fill="#ADADAD"/>
</g>
<defs>
<radialGradient id="paint0_radial_1581_333" cx="0" cy="0" r="1" gradientUnits="userSpaceOnUse" gradientTransform="translate(69.7416 96.3448) scale(33.2293 28.5713)">
<stop offset="0.33" stop-color="#F7DAC1"/>
<stop offset="0.51" stop-color="#EEC8A6"/>
<stop offset="0.8" stop-color="#E4B084"/>
<stop offset="0.95" stop-color="#E0A777"/>
</radialGradient>
<radialGradient id="paint1_radial_1581_333" cx="0" cy="0" r="1" gradientUnits="userSpaceOnUse" gradientTransform="translate(69.3575 107.676) scale(56.785 43.9908)">
<stop stop-color="#4B44A8"/>
<stop offset="0.19" stop-color="#463F9E"/>
<stop offset="0.51" stop-color="#393385"/>
<stop offset="0.9" stop-color="#231F5C"/>
<stop offset="1" stop-color="#1E1A52"/>
</radialGradient>
<radialGradient id="paint2_radial_1581_333" cx="0" cy="0" r="1" gradientUnits="userSpaceOnUse" gradientTransform="translate(69.3575 106.77) scale(56.785 43.9908)">
<stop stop-color="#4B44A8"/>
<stop offset="0.23" stop-color="#46409E"/>
<stop offset="0.62" stop-color="#3B3585"/>
<stop offset="1" stop-color="#2D2966"/>
</radialGradient>
<radialGradient id="paint3_radial_1581_333" cx="0" cy="0" r="1" gradientUnits="userSpaceOnUse" gradientTransform="translate(68.709 28.1139) scale(32.0476 27.5552)">
<stop offset="0.74" stop-color="#0D0D0D"/>
<stop offset="0.97" stop-color="#0D0D0D"/>
</radialGradient>
<radialGradient id="paint4_radial_1581_333" cx="0" cy="0" r="1" gradientUnits="userSpaceOnUse" gradientTransform="translate(68.8116 39.8674) scale(38.0588 37.9596)">
<stop offset="0.23" stop-color="#F7DAC1"/>
<stop offset="0.58" stop-color="#EDC4A2"/>
<stop offset="0.9" stop-color="#E3AE81"/>
<stop offset="1" stop-color="#D99F6F"/>
</radialGradient>
<radialGradient id="paint5_radial_1581_333" cx="0" cy="0" r="1" gradientUnits="userSpaceOnUse" gradientTransform="translate(68.2889 4.55473) scale(52.3332 35.5478)">
<stop stop-color="#333333"/>
<stop offset="0.35" stop-color="#232323"/>
<stop offset="0.97" stop-color="#0D0D0D"/>
</radialGradient>
<radialGradient id="paint6_radial_1581_333" cx="0" cy="0" r="1" gradientUnits="userSpaceOnUse" gradientTransform="translate(68.095 6.41853) scale(45.41 30.8451)">
<stop stop-color="#474747"/>
<stop offset="0.54" stop-color="#232323"/>
<stop offset="0.97" stop-color="#0D0D0D"/>
</radialGradient>
<linearGradient id="paint7_linear_1581_333" x1="80.1538" y1="33.5048" x2="91.9742" y2="16.1114" gradientUnits="userSpaceOnUse">
<stop stop-color="#5C5C5C"/>
<stop offset="0.05" stop-color="#4A4A4A"/>
<stop offset="0.14" stop-color="#2F2F2F"/>
<stop offset="0.25" stop-color="#1A1A1A"/>
<stop offset="0.36" stop-color="#0B0B0B"/>
<stop offset="0.49" stop-color="#020202"/>
<stop offset="0.7"/>
</linearGradient>
<linearGradient id="paint8_linear_1581_333" x1="45.595" y1="32.2083" x2="45.595" y2="11.734" gradientUnits="userSpaceOnUse">
<stop stop-color="#5C5C5C"/>
<stop offset="0.04" stop-color="#505050"/>
<stop offset="0.14" stop-color="#333333"/>
<stop offset="0.26" stop-color="#1C1C1C"/>
<stop offset="0.38" stop-color="#0C0C0C"/>
<stop offset="0.51" stop-color="#020202"/>
<stop offset="0.7"/>
</linearGradient>
<linearGradient id="paint9_linear_1581_333" x1="110.358" y1="105.462" x2="110.358" y2="84.3711" gradientUnits="userSpaceOnUse">
<stop offset="0.27" stop-color="#0F0F0F"/>
<stop offset="0.5" stop-color="#111111"/>
<stop offset="0.65" stop-color="#19191A"/>
<stop offset="0.77" stop-color="#272728"/>
<stop offset="0.87" stop-color="#3B3A3C"/>
<stop offset="0.97" stop-color="#545357"/>
<stop offset="1" stop-color="#5E5D61"/>
</linearGradient>
<linearGradient id="paint10_linear_1581_333" x1="27.69" y1="105.462" x2="27.69" y2="84.1953" gradientUnits="userSpaceOnUse">
<stop offset="0.27" stop-color="#0F0F0F"/>
<stop offset="0.5" stop-color="#111111"/>
<stop offset="0.65" stop-color="#19191A"/>
<stop offset="0.77" stop-color="#272728"/>
<stop offset="0.87" stop-color="#3B3A3C"/>
<stop offset="0.97" stop-color="#545357"/>
<stop offset="1" stop-color="#5E5D61"/>
</linearGradient>
<linearGradient id="paint11_linear_1581_333" x1="68.074" y1="4.26278" x2="39.6908" y2="19.9515" gradientUnits="userSpaceOnUse">
<stop/>
<stop offset="0.97"/>
</linearGradient>
<linearGradient id="paint12_linear_1581_333" x1="34.8737" y1="20.7919" x2="33.5968" y2="37.4974" gradientUnits="userSpaceOnUse">
<stop/>
<stop offset="0.97"/>
</linearGradient>
<linearGradient id="paint13_linear_1581_333" x1="106.289" y1="22.0913" x2="91.3496" y2="11.0907" gradientUnits="userSpaceOnUse">
<stop/>
<stop offset="0.97"/>
</linearGradient>
<linearGradient id="paint14_linear_1581_333" x1="57.4563" y1="31.2256" x2="79.8527" y2="14.9555" gradientUnits="userSpaceOnUse">
<stop/>
<stop offset="0.97"/>
</linearGradient>
<radialGradient id="paint15_radial_1581_333" cx="0" cy="0" r="1" gradientUnits="userSpaceOnUse" gradientTransform="translate(68.8114 98.3309) scale(27.032 16.7347)">
<stop offset="0.23" stop-color="#FFC430"/>
<stop offset="0.36" stop-color="#FBBE2D"/>
<stop offset="0.53" stop-color="#F1AE28"/>
<stop offset="0.71" stop-color="#E1941E"/>
<stop offset="0.91" stop-color="#CB6F11"/>
<stop offset="1" stop-color="#BF5C0A"/>
</radialGradient>
</defs>
</svg>
